<svg xmlns="http://www.w3.org/2000/svg" version="1.1" xmlns:xlink="http://www.w3.org/1999/xlink" viewBox="0 0 16.937218598058692 6.002025136916189"><g transform="matrix(0.7584415825707301,0,0,0.7584415825707301,8.620391943886318,2.2615199155689423)"><rect width="18.848822242639933" height="18.848822242639933" x="-9.624535492589944" y="-8.449395154523092" fill="#ffffff"></rect><g transform="matrix(1,0,0,1,0,0)" clip-path="url(#SvgjsClipPath121684)"><g clip-path="url(#SvgjsClipPath1216790bbfea72-d33b-4efb-a284-213abf5aa6fe)"><path d=" M -0.4416700029162035 2.9215203286162055 C -0.4886730430819872 2.838921524571028 -0.539797888308466 2.738931595664508 -0.5689940074883628 2.6878067504380296 C -0.7076168197926771 2.444801032780928 -0.7839606038773379 2.3109146806779326 -1.092734421581791 2.294517850897019 C -1.1124033860819358 2.2928727444912185 -1.1641067302642982 2.2314614647053834 -1.198310481031089 2.190803834961979 C -1.2473563456348469 2.1325381432487798 -1.3029284015847002 2.0665350280005956 -1.3688772825557693 2.020074330605956 C -1.6922943550811027 1.7922903667256227 -1.8313148854175925 1.421165208432018 -1.9923002979854 0.991521265132012 L -2.0212252457797275 0.9142554983364128 C -2.1530326172600054 0.5642817081174134 -2.3345366646694172 0.6165997074404053 -2.4804087920146927 0.6586855064811503 C -2.542958991619929 0.6767635988526068 -2.6019658851203564 0.6937389275894048 -2.6552420233390377 0.6817893085318703 C -2.793105555763753 0.6507673020224558 -2.8519678245252136 0.4803812814214874 -2.9201041546732274 0.28309505937179424 C -2.9393211668640875 0.22754108151431152 -2.9591528341955717 0.17007082586546152 -2.9817866058446345 0.11281750732505569 C -3.0196365278192436 0.00860867191042014 -3.084203899427549 -0.08382547106885319 -3.169021408535796 -0.1552263682665156 C -3.266643107341654 -0.24594223578647234 -3.3772448764702174 -0.34877042519530843 -3.522032318273202 -0.819361247716661 C -3.5669563778162683 -0.9653418436161663 -3.633791085313539 -1.048501068524858 -3.7207105534354956 -1.0665430047115694 C -3.8185491893498136 -1.0869350929065678 -3.932621952213695 -1.0218178041845927 -4.059692863492652 -0.8733062753530807 C -4.1999969383875175 -0.7093198994516143 -4.296353170727372 -0.4816805603102454 -4.389545736902228 -0.261525551410667 C -4.414023473973178 -0.2036756558220124 -4.439314725200843 -0.14401795099621006 -4.464859069721707 -0.08674655436343959 C -4.717048458303509 0.47841076935298976 -4.870386837798192 0.521310082550454 -5.280181035674339 0.6359432662778548 C -5.307201757738874 0.6434999088891251 -5.335289087253326 0.6514060612862362 -5.3644430242176915 0.6596617234692039 C -5.4730923593701375 0.6906294957015036 -5.57986157291595 0.95082747920386 -5.718773634698213 1.3150106500268262 C -5.757026878156213 1.4152536722265454 -5.79005555291886 1.5017935004087057 -5.811460014286662 1.5439154556341932 C -5.9141255008641584 1.7459742940699474 -5.960080011672396 1.7908441193359041 -6.118787584601402 1.84401178900035 C -6.152207221463216 1.8577204294691954 -6.183349690355032 1.8764278549984517 -6.211148558527167 1.8994934544883453 C -6.241664378450185 1.9221091480450356 -6.283460928012988 1.9531130764620803 -6.302894877312305 1.9464964946541263 C -6.367325198524169 1.9248027838083797 -6.421505241361423 1.9013012637254878 -6.47391363114627 1.8787578825382822 C -6.571535329952128 1.8366720834975343 -6.66373360104655 1.7969002802803336 -6.796806438992832 1.7795453116037363 C -6.8833643452673625 1.7684453628876606 -6.9300058235857165 1.81899170915825 -6.983932773129766 1.8777274312731085 C -7.053619916035149 1.9597647328458057 -7.14049347966131 2.0254753631333693 -7.23840000135037 2.070204880751993 C -7.373895303674429 2.133170876481771 -7.63826932651459 2.7820840021551563 -7.700168714794452 2.974217967878984 L -7.700168714794452 2.9743806707103286 L -7.700331417625796 2.9750134039433305 C -7.705435106084853 2.9898073265102307 -7.7096250643464606 3.004900836098145 -7.712877613731585 3.020208634871969 C -7.711829084374042 3.0200640101329967 -7.605059870828225 2.9724463148265836 -7.59146514536489 2.964473876090772 C -7.479823316954344 2.8939131305004455 -7.351427083922032 2.854306770264812 -7.219436082452715 2.8497141457167734 C -7.073112002798155 2.8432964229249067 -7.053732287775955 2.8323953332249183 -7.0366484904849305 2.822777788083306 C -7.022041391848794 2.8145884122390368 -7.009531351927748 2.8073752533828236 -6.87727202813818 2.808749188403054 C -6.750309585413451 2.8099423424995704 -6.631988470842277 2.8163600652914367 -6.506671134523347 2.823211662300218 C -6.447212288713632 2.8264114846499635 -6.3873557248717425 2.829665541276827 -6.3261975383791125 2.8323410989478037 C -6.284748143157862 2.8329445253055665 -6.243311760840271 2.830442751602858 -6.202236058988049 2.8248567687060233 C -6.175516638463034 2.8219100396494747 -6.147893313319449 2.8188367639463263 -6.121517376549496 2.8176255317574377 C -5.954222709744049 2.8103942948088547 -5.885616349194374 2.7992220337232965 -5.776225812254701 2.7714540838407404 C -5.738226707768162 2.758920763291908 -5.70169522590189 2.7423127891234027 -5.6672691495319345 2.7219201107429574 C -5.604899730850416 2.6885479522252456 -5.534196311585656 2.6507285829841596 -5.469404428526362 2.6485049776224754 C -5.028027803277282 2.6335363171389097 -4.694577389485791 2.6168321597876867 -4.422682880219102 2.538228614156599 C -4.385677025134733 2.5275263834726953 -4.350949009689165 2.5157213891541383 -4.3142143259903705 2.5032475054178343 C -4.2205127960517315 2.4687712000086774 -4.123701364776327 2.4434225999992916 -4.025127550878429 2.4275545326585584 C -3.7519314189609974 2.3863726382363764 -3.5583512058474573 2.3880358227345546 -3.4498284173416085 2.4326344766149313 C -3.3398413033536736 2.4778297075435702 -3.3084938911815724 2.4990353098952873 -3.2833111085081326 2.51610102909394 C -3.2497854987159007 2.5391128375923193 -3.2125226931739572 2.556135553912611 -3.1731793697812254 2.5664123601636972 C -3.0083521105977775 2.617408430146547 -2.8374460304938394 2.646135972960178 -2.665004193219617 2.651831346618821 C -2.6035386791566717 2.653639155855966 -2.5406269177040066 2.652482157944195 -2.4797399025969478 2.6513613162171614 C -2.3384234545292824 2.648776149008045 -2.1922982338908072 2.6461186694294407 -2.0641245589771913 2.6809009191521205 C -2.0139036183692864 2.694531800800195 -1.9684372160550812 2.707276855922076 -1.9260440894440167 2.719136084517748 C -1.7018757440379702 2.781903221231442 -1.5665612226376293 2.819794902842012 -1.2718521607981677 2.8420671126436434 C -1.1853304107083833 2.8485933039897398 -1.1589544739384294 2.8572527102356635 -1.1356879690563702 2.8648997433087913 C -1.1084262057602157 2.8739387894945168 -1.0849066075849514 2.8816039006600143 -0.9777396760069603 2.8824354929091034 C -0.7464666402989364 2.884243302146246 -0.7075806636079376 2.8980549647180402 -0.6431684204884407 2.920996063937418 C -0.6124356634569663 2.9318429193602893 -0.39992768763051245 2.9912294528005217 -0.39992768763051245 2.9912294528005217 C -0.39931303248988304 2.9913559994471375 -0.43832555582748256 2.9270160686971285 -0.4416700029162035 2.9215203286162055 Z M -1.0770426374033715 2.4659524008555334 C -0.9732563090988462 2.4700561278238555 -0.9036375753763668 2.4858383024641326 -0.8490417364145735 2.5157213891541486 C -0.9160362461326423 2.4963737972329363 -0.9853999818675465 2.486455999930492 -1.0551319894491646 2.4862540985886743 C -1.0878858198631418 2.4839330006578413 -1.1186219529809476 2.469572728951849 -1.1414187243381226 2.4459399526003294 C -1.121963894637659 2.4578731290019267 -1.0998341157956464 2.4647525631996565 -1.0770426374033715 2.465952400855528 Z M -7.201177209157546 2.1502365956804392 C -7.092763398435646 2.100621723569948 -6.996444609944281 2.0280094231131884 -6.918905874869643 1.9374393703760413 C -6.867220608779653 1.8811622688236995 -6.847497410002396 1.8620537251870717 -6.80815948100211 1.8670613567739656 C -6.687361667776045 1.8827892971371298 -6.604618238991895 1.918493529570756 -6.508822427515555 1.9598019706395324 C -6.4547870094172755 1.983104631706337 -6.398925703989478 2.0071846507451183 -6.331096701411779 2.0300895937797483 C -6.267823378111683 2.0513855865933257 -6.2097746235069415 2.0083958829340016 -6.158541309726238 1.970323420399716 C -6.137916253051864 1.9531811667473935 -6.1151149871916015 1.9388414743548696 -6.090730385240908 1.9276772004954568 C -5.90913594736964 1.8668263415731383 -5.845573374591606 1.805794701727105 -5.7327841562860975 1.5839041959598612 C -5.709282636203206 1.5376062013965668 -5.6754766034685815 1.4490416268688042 -5.636337533484383 1.3464665307531654 C -5.5644228820307315 1.1580024177807458 -5.414754355287453 0.765780125689651 -5.340236458532319 0.744466054783709 C -5.311203042183761 0.7361862884775847 -5.283242259315907 0.7283162922652133 -5.256354109928765 0.7208560661465897 C -4.842365794622438 0.6049935721379303 -4.6533051046017615 0.5521332300437942 -4.384230777745023 -0.050843462913721105 C -4.358342949469096 -0.10889221751846556 -4.332870917317719 -0.16903803083829727 -4.308302789784909 -0.22721333208964156 C -4.217731547003919 -0.44118563339818306 -4.124068950427408 -0.6624253278400551 -3.9926592969792996 -0.8160348787203051 C -3.8910423397593465 -0.9348260236931354 -3.8008688150105314 -0.9930374811292247 -3.738662099160355 -0.9802381917302365 C -3.6726228277274284 -0.9665349977126744 -3.6302839353934813 -0.8711007480837585 -3.6064027753707872 -0.7935095756254744 C -3.454673346097162 -0.3003211376398064 -3.3348336717667877 -0.18892393244689631 -3.2291129875785183 -0.0906875785004092 C -3.1680090353629975 -0.033868134176928244 -3.115221005638351 0.01515965233445793 -3.0638792233034158 0.14515921457759373 C -3.0419685753492116 0.2006228019732217 -3.0224442355880425 0.25715299681875803 -3.0035345509674993 0.3118392262424119 C -2.9299567150156776 0.5248172324705247 -2.8604645279398033 0.7259721662877079 -2.6746217383612425 0.7677867939428835 C -2.599380717911245 0.7847440445873115 -2.526381380915308 0.7637373012516788 -2.455876820666634 0.7433813692414202 C -2.3112520816949926 0.7017113663252197 -2.2068872544345837 0.6715932644343738 -2.1038059717325455 0.9452775048458326 L -2.0748810239382207 1.0223986469024622 C -1.9087795112292865 1.4657277061276575 -1.765329848261791 1.8485674682779671 -1.4196405659348255 2.0921155287062123 C -1.3913128349452135 2.112802809481392 -1.3650281849098906 2.1361514725827777 -1.3411454888579657 2.1618427309829142 C -1.34566501195083 2.1589863923882255 -1.350057988397091 2.156039663331679 -1.3547402143212999 2.1533098713835876 C -1.6718480326089953 1.9689133291947427 -1.8155327107773234 1.660591463799574 -1.9818873167794537 1.3036395299251913 C -1.9971211226178003 1.2709302347944371 -2.012595969687765 1.2378533517854668 -2.028311857989351 1.2044088808982756 C -2.1661211561369544 0.9121042053442106 -2.3325299964161976 0.9527618350876126 -2.479360262657159 0.9886287703525865 C -2.5422177898327103 1.003995148868321 -2.60160432327294 1.0184937789502326 -2.6577006439015642 1.0077011578044712 C -2.811834459460594 0.9780350082229097 -2.8833875490668106 0.8139220856748437 -2.9662213683128202 0.6239032567584759 C -2.981461200181961 0.5889221480197115 -2.9969541253442955 0.5533986965097974 -3.013224408478604 0.5182910411244332 C -3.0511449347684705 0.4306259105775134 -3.108507139412076 0.352733489140999 -3.1809710275933334 0.29050707724409985 C -3.2652691723214335 0.21179506305878215 -3.360811890504574 0.12257967720565355 -3.5092511069665937 -0.2807606416938867 C -3.5533978085376887 -0.4007087845784906 -3.6183885506130693 -0.47088793916447913 -3.702451680140335 -0.4893818276604802 C -3.8032551232035687 -0.5114913346307662 -3.924486810646546 -0.4555034825563692 -4.052877422668624 -0.3272574952732661 C -4.192530686238115 -0.18771270025800268 -4.2886157471924 0.006807573658854205 -4.381537141981681 0.1949101247838494 C -4.406394518992432 0.24525761203835406 -4.432155800621755 0.29730443997577116 -4.4580617069900494 0.3470553501820113 C -4.708154036856763 0.8261247980255779 -4.889242288141631 0.8697833911026409 -5.286038337602699 0.9654888121171266 C -5.316481845156229 0.9728104395275672 -5.348100428713906 0.9804393945083221 -5.381129103476553 0.9886106922602163 C -5.482004858909271 1.0139200215802586 -5.58085586799639 1.2302967091742016 -5.709481495219295 1.5333036154121675 C -5.749000205143293 1.6263696349404162 -5.783113565448234 1.7067448336239095 -5.805638868543065 1.7446365152344803 C -5.907725856164673 1.916378392763304 -5.95736829781669 1.957524131000738 -6.118046382814181 2.0035509541784577 C -6.1500786687948485 2.014832215137097 -6.180361812596405 2.030570199435899 -6.208002970454544 2.0503009010510396 C -6.245008825538913 2.074019358242391 -6.283298225181653 2.0985513295904594 -6.308010977453433 2.091410483103731 C -6.37081427035187 2.0733323907322747 -6.425373953128921 2.053591113862643 -6.478125826668827 2.0345548825955024 C -6.580917859892923 1.9974224808645333 -6.678033372112379 1.9623509816639118 -6.811070053873919 1.9487201000158345 C -6.904334932418258 1.9391748672437044 -6.946800371398805 1.9853463151604016 -6.991850977588471 2.0342837112099303 C -7.055807346222471 2.1094600483036325 -7.139167214438591 2.1656440116913678 -7.232850026992343 2.1967153711674565 C -7.242134253494316 2.200343967640158 -7.251006253633757 2.204949650772655 -7.259316354224156 2.2104547213697585 C -7.244604761573295 2.1863477252343606 -7.224752666373979 2.165785744790049 -7.201177209157546 2.1502365956804392 Z M -7.206799495885071 2.2679430551109836 C -7.101722392533129 2.2327800664533535 -7.008149090376279 2.1697772502051254 -6.936043906437786 2.085643571637223 C -6.893632701734352 2.039490201812901 -6.874578392374839 2.018501536569643 -6.818789399316526 2.0241780575742783 C -6.6949544665720575 2.0368327222342995 -6.606371813951927 2.0688851800088877 -6.503796717836291 2.1059271912779995 C -6.449887846384612 2.125379218669684 -6.394171165695786 2.1455001354791152 -6.328981564604319 2.164337507730171 C -6.271131669015661 2.1809151184347915 -6.215939253005608 2.1455182135714854 -6.167146481695052 2.1142250356764962 C -6.145531049562769 2.0987302888513724 -6.122026447474138 2.0860576085833733 -6.09720234230989 2.07651413498964 C -5.918410008756201 2.0252988993013066 -5.851756082182643 1.9705403575081681 -5.740593892190565 1.783522491925464 C -5.703238379880038 1.71183058700043 -5.669610519041949 1.6382571961518995 -5.6398446834044424 1.5630963116403107 C -5.568201203336367 1.394355397445148 -5.434875272096885 1.0802666205834814 -5.362852152089008 1.062333152951 C -5.330076570619559 1.0542341675685853 -5.298602611800854 1.0466413687725753 -5.268285650893927 1.0393378194545098 C -4.874183237196203 0.9442651316730286 -4.657011113537907 0.8919109761652917 -4.391028140476688 0.3823799426758301 C -4.364652203706733 0.33188783068235583 -4.338764375430809 0.2794613628051339 -4.313708139403975 0.22871615751845997 C -4.223516536562782 0.046127424566762665 -4.130233579926076 -0.14271632834546166 -3.999420503526223 -0.27342093619108143 C -3.8917654634542083 -0.3810036638936166 -3.7920467059332603 -0.43142346351760086 -3.718703885182266 -0.41518933656803714 C -3.66148672282661 -0.4025346719080186 -3.6148994787853708 -0.3484992538097389 -3.580243775709288 -0.2542943144620865 C -3.4255856954714874 0.16593094271239162 -3.3230467555405934 0.261654441819247 -3.2325839813138337 0.34613336747105694 C -3.1673693248111947 0.4017838158211682 -3.1158156546971565 0.47167661393617655 -3.081903081397752 0.5504158112685011 C -3.0658678134642727 0.585089592436951 -3.0506279815951354 0.6200345449909757 -3.0356050868344573 0.6545094671433407 C -2.9480348073871285 0.8554113076673242 -2.865309456695349 1.0451589651981172 -2.6720546492444956 1.082363679298569 C -2.599742279758675 1.096265732332221 -2.529436578526086 1.079091544579338 -2.4614629512094144 1.0624777776899696 C -2.3199295660332915 1.0278763088910048 -2.208225033270069 1.0006326236872254 -2.0967916718924196 1.2370217595363728 C -2.081123991837159 1.270357761869334 -2.065691326982728 1.303338228385658 -2.0504936773291247 1.3359631590853436 C -1.8787517998002983 1.7044308378003468 -1.7305114423543664 2.022677575907445 -1.3928307549479557 2.2190237371538197 C -1.3406763353865827 2.2523996229645693 -1.2939239315437545 2.2935434453058465 -1.2541898645512584 2.3410327825687682 C -1.2806218728465533 2.319985175005891 -1.3094154089718915 2.3020878021509117 -1.339988490946192 2.2877024100729777 C -1.6518175062614233 2.1418664389124475 -1.8007448312174725 1.8907798139653091 -1.9731917543487825 1.6000479324475627 C -1.9935476863590411 1.565699556941797 -2.014247102124357 1.5308449948496325 -2.0355792511226767 1.4954480899863212 C -2.1774741981462267 1.2602159520489473 -2.3374833937259787 1.2916175984981613 -2.4784925142233307 1.3194036264730902 C -2.541657368969193 1.331805197839909 -2.6014235423492256 1.3435378797889839 -2.659870014986139 1.334191506032941 C -2.8343959187401673 1.306315087596157 -2.925166020537244 1.141424807076112 -3.021269159583899 0.966862747137339 C -3.0290668434267856 0.952701574779701 -3.0369006834544168 0.9385464284528542 -3.044770679666791 0.9243973081567944 C -3.0824224018833837 0.8534592498859841 -3.1326094854149638 0.7899261015490289 -3.1929025685584955 0.7368732559876885 C -3.264003705855428 0.6701108608599053 -3.344613919739748 0.5944359661929939 -3.4966145203989427 0.258599244208471 C -3.539387286949804 0.16408697729049893 -3.6014674561533813 0.10683365875010353 -3.6810110625877854 0.08848439499307736 C -3.8217851678843093 0.056124609648169344 -3.9702605405310685 0.15696420889614826 -4.046188528491182 0.22002059508778626 C -4.1847932627031295 0.33497918447786645 -4.280426371348129 0.4963080808007314 -4.372931970012864 0.6523039398740236 C -4.398241299332904 0.6951670968867427 -4.424617236102854 0.7395126574739253 -4.451155875704153 0.7816888469765251 C -4.69882574119309 1.1756104797505373 -4.908875096457027 1.218401324393772 -5.290142064571021 1.2960467311291706 C -5.324707377185243 1.3030971871540418 -5.360646624819697 1.3104007364721069 -5.397923651289636 1.3182647066536917 C -5.491007748910257 1.3378432806919762 -5.586170827153601 1.5208478097682154 -5.700912479435226 1.7580504597740818 C -5.729925526315389 1.8227664286837997 -5.762896070267939 1.8856344517890768 -5.7996369418757405 1.9462976356380444 C -5.9015793047583776 2.088662613063257 -5.955108536270258 2.125270750115454 -6.117684820966754 2.1639217116056235 C -6.1483555985718485 2.172924771127227 -6.177761854218757 2.1857782387886346 -6.205200866136972 2.202174955063624 C -6.2435264219644555 2.222856292736567 -6.283280147089283 2.2441522855501392 -6.312584734823416 2.237137985710016 C -6.373760999408421 2.22249473088914 -6.428501463109187 2.2064052286785407 -6.481452195665178 2.1908580692390913 C -6.589631500415967 2.159094860942445 -6.691790800407059 2.1291033056982016 -6.824809404076229 2.11854569975327 C -6.925522456677608 2.1105371048327184 -6.960792814894317 2.1481395369653415 -7.001576991284319 2.1916715833958103 C -7.040643748899033 2.2333415863120134 -7.089237661193507 2.2852076333257183 -7.228276269622366 2.32456364041838 C -7.259748533355312 2.335138712504149 -7.28864284130027 2.352219061242452 -7.313080600936863 2.374694190564422 C -7.273507656735739 2.3187244165824 -7.236447567374255 2.2787718324414845 -7.206799495885068 2.2679430551109836 Z M -7.21117439423896 2.3849625470314137 C -7.055287003719903 2.340797767367949 -6.997708279516818 2.2793684094897437 -6.955676714753183 2.2344985842237897 C -6.918851640592528 2.195214889500618 -6.900375830188903 2.1755097688157314 -6.8298893480326 2.1810958993585117 C -6.703342701432412 2.1911834749017833 -6.604256677144465 2.220271125527453 -6.499295272835797 2.251112351113158 C -6.445585260400202 2.2668583695686975 -6.390067438727464 2.2831648088877463 -6.327336458198516 2.298205781740799 C -6.274530350381495 2.310715821661848 -6.2218327111187035 2.2824597632852597 -6.175372013724064 2.2574216053507947 C -6.15269440344521 2.243761582074935 -6.128459116660596 2.232873000935043 -6.103186190884843 2.2249895076364017 C -5.925568933335294 2.1828133181337965 -5.859258490516795 2.1375096186509306 -5.748457862372147 1.9827430698588997 C -5.721738441847137 1.9454298872042157 -5.685835350397428 1.8712012399270197 -5.644255737943082 1.7852399107007542 C -5.573534240585947 1.6390785338775369 -5.455195047922401 1.3944277098146327 -5.384997815244045 1.379657908347157 C -5.347811179235961 1.3718300943503174 -5.312070790617592 1.3645446231246168 -5.2776501027423395 1.357548401376866 C -4.892424032399001 1.2790894804847532 -4.659921686409714 1.2317248784715398 -4.397861659393103 0.8149886931247519 C -4.37088914557489 0.7720893799272879 -4.344404740250707 0.7274003355850509 -4.318788083360355 0.6841936948172773 C -4.229030354736082 0.5327896712063394 -4.13619935040866 0.3762514693619081 -4.00603708533418 0.2682529455348337 C -3.891946244377928 0.17361413197026687 -3.778686995670758 0.13026286646351304 -3.695093896545149 0.1496245033933481 C -3.6356712069201764 0.16332769741091036 -3.588180058260363 0.20864947498615138 -3.5539401513088285 0.28430629156068776 C -3.39682345050851 0.631550289831601 -3.3113683078686442 0.7117808637761165 -3.235982662679672 0.7825565954103644 C -3.1804558877987334 0.8311840479459187 -3.13429562758963 0.8895613985262629 -3.099782314753126 0.9548046595255903 C -3.091972578848659 0.9688332592058422 -3.084198999128934 0.9828980150708335 -3.0764615755939495 0.9969989271205701 C -2.9773032389365213 1.1771471176021158 -2.874746220913255 1.363441859489963 -2.669812965790439 1.3961812847746708 C -2.6001580758832192 1.4072812334907412 -2.5321302142894355 1.3939215232282387 -2.4663078799649663 1.3809776090902757 C -2.3280285514157057 1.3538604705330957 -2.2085865951174988 1.3303589504502011 -2.089488122574352 1.527753641054122 C -2.068228285945522 1.5630059211784584 -2.047619260642061 1.5977520147163986 -2.0273356410012875 1.6319196092984463 C -1.8495737587127659 1.931618224632429 -1.6960365202019982 2.1905326635764144 -1.3666175210093394 2.3445218543964663 C -1.3130166427448353 2.3717551423472276 -1.2648863268962982 2.408621959274243 -1.224632183523929 2.4532796581031424 C -1.176544457815857 2.5014758523654397 -1.1311142116863913 2.5469964889567653 -1.056849408224453 2.549220094318455 C -0.9093502525657495 2.5536130707647167 -0.8320664076777806 2.5788139315305263 -0.771504798233404 2.6285467636443993 C -0.830240520348263 2.6006341890228706 -0.9091152373649196 2.5848339362902237 -1.0358245867964504 2.58208606624976 C -1.099857189976147 2.580694053137159 -1.1288725282323293 2.5549689276925776 -1.1690601275740766 2.519427398090299 C -1.2134883729378663 2.476620965277135 -1.266326611089819 2.443513188884128 -1.3242243943982777 2.422203417316613 C -1.6319858389299293 2.31098699304742 -1.779231901295435 2.1227578952758277 -1.9656531898298804 1.8844705597276805 C -1.9906009573024903 1.8525988828768045 -2.0161633799157297 1.8199317699615842 -2.0427924099788797 1.7865776895362502 C -2.186043213930291 1.607170700841929 -2.3343197275609677 1.6288463335953058 -2.4777513124360935 1.6497807645614482 C -2.538293922733552 1.6616114144156229 -2.600170580605459 1.6651027347359277 -2.6616597461309066 1.6601575895826648 C -2.848189503219581 1.6364572104836883 -2.9598217236133184 1.4967316345447101 -3.0763350289473497 1.3302504818959768 C -3.1130231106565347 1.2764456998601599 -3.1559564968644542 1.2271769842952005 -3.2042375324754007 1.1834744499321275 C -3.265196859951944 1.1260765066527623 -3.3282532461435768 1.0667080513049045 -3.483959855738921 0.79756141207868 C -3.5196583816847395 0.7310594398116415 -3.5821196866329243 0.6830224058755074 -3.6555571085287752 0.6655913377670619 C -3.763356773339763 0.64013738370805 -3.9034800673109102 0.6772697854390166 -4.039951586623025 0.7672986854488644 C -4.176856980152057 0.8576891473061419 -4.2717669651021986 0.9857001193884152 -4.363549440072077 1.1095169740405142 C -4.389762674010687 1.1448958008114531 -4.4168617344755 1.1814497035865354 -4.444231966325882 1.2160873285702403 C -4.691269098581815 1.528639467580331 -4.920897027884042 1.5662057435282146 -5.301296247564204 1.6284486155631335 C -5.337976696985886 1.634468620322831 -5.375886456688827 1.6406694060062352 -5.415188229504371 1.6473402220913065 C -5.50738650059879 1.6630500843620988 -5.6060386506698245 1.8355150855857842 -5.693102743530754 1.9876964671686936 C -5.732169501145468 2.05595934396331 -5.769030731490865 2.1204800556370333 -5.793671171393161 2.1477960532103 C -5.896047408492713 2.261525332319125 -5.953608054603425 2.2927823540293715 -6.117901758075209 2.323840516723534 C -6.147295946019687 2.330729521758695 -6.175852807324716 2.3407980733671976 -6.203067651237135 2.3538682281525247 C -6.2425140487916515 2.371024337813035 -6.283262068996911 2.3888131807065442 -6.31667038369936 2.3823954579146776 C -6.37616538569382 2.3710604939977746 -6.430942005579329 2.3584962197996164 -6.483928894320062 2.3463658198183697 C -6.600089454276311 2.31645811653891 -6.718657282567776 2.296833931080877 -6.838259504800586 2.2877204881653657 C -6.947143855153862 2.2813750777429864 -6.977207722767592 2.3119993662202343 -7.012080362952127 2.3476493643767453 C -7.044711319682605 2.380949210524967 -7.085314715148894 2.4224022763327104 -7.22491374444127 2.4521768944684967 C -7.2776475398888065 2.4634214679235447 -7.3300016953965415 2.4977156091521926 -7.379553746586699 2.5436881980528026 C -7.320528774993893 2.462047532903301 -7.260762601613861 2.399009224804036 -7.21117439423896 2.3849625470314137 Z M -7.214500763235309 2.501493930457812 C -7.060023463921225 2.4685375680646473 -7.011556098273353 2.419039751151607 -6.976159193410044 2.3829016445010662 C -6.945643373487026 2.3517350132526795 -6.927185641175773 2.3329157190939913 -6.841368936688472 2.338031819235115 C -6.7245556055631175 2.347044989504361 -6.608756549107257 2.366275266915068 -6.49530001442171 2.395502074883973 C -6.441879251464054 2.4077409434194466 -6.386614523084516 2.420395608079465 -6.326233694563855 2.431929431012458 C -6.277531313715156 2.441221570491383 -6.2295339784689405 2.420323295709983 -6.183055202981931 2.4001119884386966 C -6.159271137992553 2.3885842587255786 -6.134327445628062 2.379621255565449 -6.108645774781021 2.3733744898213165 C -5.932619389360159 2.3401107998578374 -5.866760898850948 2.3042257865004965 -5.756303754461359 2.181511695483056 C -5.728083852269519 2.150182361403327 -5.691638418048663 2.086475163886315 -5.649444150453686 2.012716547010781 C -5.580186978578643 1.8915933281220285 -5.475514823747911 1.7087515018771287 -5.4068180727363835 1.697054976112799 C -5.3676247684750695 1.690366081935363 -5.329823477326356 1.6841833743443235 -5.293251496458904 1.6781995257693736 C -4.91429852416846 1.616191668935282 -4.663935022916176 1.575154399252078 -4.404767490678993 1.2473443502804793 C -4.376909150334582 1.2120920701561402 -4.349575074668939 1.1752127617183734 -4.323126825529502 1.1395266073771197 C -4.23392951776874 1.019234980737456 -4.141731246674318 0.8948034709447334 -4.012183636740469 0.8093844844896043 C -3.8872640184537115 0.7269483832757717 -3.761512807917873 0.6923830706615468 -3.6671451657388756 0.7146552804631829 C -3.607317016610285 0.729114342868503 -3.556534399196429 0.7684810699982054 -3.5276184488159847 0.8228165071215918 C -3.3682058302844897 1.0983808691396884 -3.3024196521447626 1.1603164136042978 -3.2387847669972407 1.220191055538555 C -3.193012606907349 1.2615301747074672 -3.152349376970635 1.3081957829139452 -3.1176615481084875 1.359193507782674 C -3.022390001310919 1.4953034652473618 -2.891902330573754 1.6817609099665516 -2.668023234645653 1.7101977492668494 C -2.602000731563729 1.7157273636686003 -2.5355321126899337 1.7121995636185643 -2.4704658412103875 1.6997124556914058 C -2.3352417102719034 1.6799531007294037 -2.207447675298085 1.661242275124951 -2.082220729441018 1.8180516483549543 C -2.0556820898397197 1.8512791821336885 -2.030246213873083 1.883801670309936 -2.005388836862333 1.9155648786065824 C -1.8215527155370026 2.1505800794355014 -1.6627909083308836 2.353488588212715 -1.3413805040587823 2.469658409791689 C -1.289488434033088 2.488827772601407 -1.2421824775092816 2.518644934992486 -1.2025045984612657 2.557192533054275 C -1.1597860661875137 2.5950119022953633 -1.1194538421067959 2.630734212821357 -1.0369273504311032 2.632505865873757 C -0.838610677116236 2.6368265299505365 -0.7716855791571087 2.670777187424127 -0.7027899691294932 2.7421494961066344 C -0.7629719386340703 2.702377692889431 -0.8411596881406131 2.680557435397087 -1.0165533403284694 2.6779722681879705 C -1.0950664954977025 2.6768333483685667 -1.1212435732515686 2.6573813209768846 -1.1574539922715967 2.6304449633434146 C -1.2015602569834014 2.595503233371731 -1.2527716978042367 2.5706255792284063 -1.3075021589546738 2.5575540949017124 C -1.612588045815352 2.477865863728336 -1.7578816742047376 2.3451184314447384 -1.9589823737448055 2.16142693485838 C -1.988015790093363 2.134888295257082 -2.018097735799464 2.107427672944843 -2.0498428660037424 2.07904506792166 C -2.190960455055322 1.9529503736307614 -2.3364890986455373 1.9669608952186355 -2.477136657295456 1.9803929178506259 C -2.538760130860391 1.9882739440434407 -2.60099096958284 1.9903077502695603 -2.6629975249663866 1.98646715688743 C -2.8695035741255213 1.9669608952186355 -3.0158276537800806 1.8347558057061826 -3.1079174563202754 1.7369894821613525 C -3.154251607068315 1.6878351490033663 -3.183465804340587 1.6608987913698963 -3.209245164062281 1.6371260999014376 C -3.2630455669597342 1.5875378925265373 -3.3055290840326537 1.5483626663575905 -3.471377503448383 1.3373732502903377 C -3.5961163408114256 1.1788283801926793 -3.8525540811005166 1.226590700238062 -4.034311221803125 1.315679539444591 C -4.168486823384068 1.3814837956766906 -4.262203654237691 1.4762853120726018 -4.352829131295793 1.5679773965806199 C -4.380271675515665 1.595727268370804 -4.408654280538848 1.6244533571490467 -4.437326135039975 1.6514077928748865 C -4.685954139424599 1.8850852148683148 -4.952262518148505 1.9177161715987925 -5.320856743510108 1.9628752463426884 C -5.357175631084363 1.9673405351584403 -5.394488813739047 1.971914292528417 -5.432850525751272 1.9767953774687106 C -5.51671479626245 1.9874976081526117 -5.606617149625701 2.112634163547821 -5.685943818951645 2.2230370736603025 C -5.725119045120587 2.277560600252614 -5.762124900204956 2.3290831635112594 -5.787868103741907 2.350324922047717 C -5.892721039496348 2.4369009064146168 -5.951510995888319 2.4606012855135933 -6.118697194139539 2.4841028055964878 C -6.1470104481133525 2.489042111123727 -6.174836561889243 2.4964523262053464 -6.201856419048231 2.5062484687515187 C -6.242152486944208 2.5194997104597943 -6.283786333675669 2.5331486702002466 -6.32030408026601 2.5280325700591204 C -6.378334756778382 2.5197889599377388 -6.433256001402863 2.5105691328282984 -6.486351358697823 2.5016566332891674 C -6.606976396226523 2.478873323779457 -6.728962684196864 2.464005490067425 -6.851528824601228 2.4571483698706453 C -6.9632514354568125 2.4523215192074663 -6.989338122748824 2.471520453305954 -7.022692203174158 2.5029582559399133 C -7.049212764683084 2.527942179597266 -7.0822233613533605 2.559000342291425 -7.22258167052534 2.580296335105 C -7.312375555334356 2.5939091386607047 -7.394811656548193 2.6514878628637923 -7.464141140792724 2.7183044922686905 C -7.389370150744396 2.615910177076756 -7.299612422120121 2.519644335198756 -7.214500763235309 2.5014396961806997 Z M -7.216941305705456 2.617736064406271 C -7.064904548861516 2.5947045747250383 -7.027121335805175 2.5591088108456423 -6.996768218713502 2.530527346806369 C -6.971458889393465 2.506555796321818 -6.954610107303269 2.490918246420511 -6.8531196967299195 2.4949677391117153 C -6.732147146937858 2.5017741665813173 -6.61174923560454 2.5164849712163133 -6.492696769120219 2.539005972128578 C -6.4393483185320495 2.5479546278524463 -6.384228214891484 2.5572106111466346 -6.325673273700341 2.5655084555451286 C -6.280478042771701 2.57198041261411 -6.234505453871091 2.55681289311446 -6.190087580914424 2.542205794478324 C -6.1652098285260335 2.533135445582845 -6.139594112983991 2.526234021395483 -6.1135268597213095 2.5215786910824933 C -5.939706001569773 2.49717326638103 -5.87435369764696 2.4705984705949895 -5.763950787534479 2.3794848850428556 C -5.734411184599523 2.355115616526135 -5.697784969454952 2.304117317946256 -5.655373764751518 2.245092346353458 C -5.584254549362212 2.146114790619742 -5.495744209111571 2.022912591108275 -5.428222534104183 2.0143254972318307 C -5.3899150563690705 2.0094263341991674 -5.352656107991499 2.004870654921561 -5.316409532786731 2.0004234441981814 C -4.940674460938405 1.954378542928084 -4.669213825888637 1.9211148529646072 -4.411582931503027 1.6789768837413375 C -4.382386812323126 1.6515343395214654 -4.353733035914369 1.6225732355423985 -4.326073554586043 1.5945702704590095 C -4.237653604797256 1.505101791312676 -4.146232691674804 1.4126142707403138 -4.017805923467991 1.3496482750105359 C -3.848721525517769 1.2667602214874139 -3.611988905913562 1.2199198841529748 -3.501260590138399 1.3607663018189813 C -3.3334958929312943 1.5740877918021514 -3.2900361588703158 1.614166922589669 -3.2349883675992324 1.664912127876343 C -3.2096790382791953 1.6882690232202626 -3.1809710275933227 1.7147172723597057 -3.1355588595562294 1.762913466622003 C -3.039274939585858 1.8651270008902099 -2.885900403906435 2.0033520951623576 -2.666667377717798 2.0241238232971606 C -2.6022735670196155 2.028203506003691 -2.5376379120466277 2.0261635906894093 -2.4736295073753984 2.018031506167981 C -2.3349524607939616 2.0047621863673335 -2.203904369193282 1.9921798340767998 -2.0751521953237795 2.10722881392874 C -2.043515533673734 2.1355210284900683 -2.013542056521863 2.16289126034045 -1.9845990306351604 2.1893575875722604 C -1.7872043400312396 2.3696684808851534 -1.631298871419813 2.5120696144951107 -1.3171739383734034 2.5941441538615164 C -1.2671165594143083 2.6059704327889825 -1.2202960590888434 2.6287262824988535 -1.180069685828287 2.6607800023426997 C -1.1413283338762579 2.689578403490427 -1.1078657848966964 2.7144719366859222 -1.0171499173767344 2.7158097155214107 C -0.7751384948000641 2.7193349435338434 -0.7329080710203444 2.75841977924093 -0.6487545510312183 2.836282123084786 C -0.6387935221345469 2.8455200282866016 -0.6281636038201306 2.855336432444304 -0.6165936247024009 2.865677101280773 C -0.6218001153053789 2.8622784199149423 -0.6268258249846426 2.858964102980175 -0.6316707537401962 2.8557341504764735 C -0.7092980823832251 2.8042658214949405 -0.752070848934089 2.7759193726565 -0.9972097814910201 2.773876548218525 C -1.089697302063385 2.7730991902465534 -1.1142111953190783 2.759215215305274 -1.1452512799208678 2.741643309520222 C -1.1896239642576463 2.7157689860921437 -1.2388590767183398 2.6993306129193284 -1.2898760188925094 2.6933567247960624 C -1.5929913936847022 2.6429369251720756 -1.7355009958488843 2.559777700263381 -1.9511907159327135 2.4339180211733074 C -1.9843097811572203 2.4145925404282225 -2.0190739527875303 2.394290842695076 -2.056314823072727 2.3730310060662467 C -2.1919005158586407 2.2956025364393047 -2.3370133633243118 2.302960320034488 -2.4772812820344337 2.3102638693525557 C -2.539470109296248 2.314594305366426 -2.601852124565892 2.315451333826978 -2.6641364447857905 2.3128309584693025 C -2.834741910762035 2.300432684211646 -2.9988793981217796 2.2424088836169243 -3.13937333704661 2.144831246061366 C -3.1884930651812162 2.112737201530373 -3.2346867717710284 2.076373873831139 -3.2774176503950425 2.0361638328165528 C -3.309108546322201 2.007238885022228 -3.3569612568294467 1.96343566720619 -3.4588855416197113 1.8782516959518931 C -3.616399960452199 1.746570871118212 -3.935839852655816 1.8348642742603998 -4.02999055772635 1.865000454243618 C -4.159628558122057 1.906580066697964 -4.25110370552162 1.9682986740541137 -4.339595967679893 2.028010613157031 C -4.370690286558798 2.048999278400291 -4.400031030477669 2.0688128676394077 -4.431143427448943 2.0879394893684053 C -4.686695341211833 2.245001955891611 -4.98516464626456 2.2689373501914147 -5.363032933012718 2.299236233005978 L -5.4512178676006755 2.3063590014003315 C -5.526856606082845 2.312577865176111 -5.6079549284611945 2.392953063859601 -5.679526096159783 2.4638734202328187 C -5.718647088051613 2.5026690064619608 -5.75561678695124 2.539313299698903 -5.782950862616879 2.5540469449816388 C -5.8910216988134385 2.6123849490643254 -5.954041928820329 2.6293060435240085 -6.120197675806375 2.644563953485516 C -6.1476648053883665 2.64770160902249 -6.174912085498258 2.652531616575764 -6.201784106678754 2.65902642738268 C -6.241341419584616 2.670003051086708 -6.282325456768648 2.6749637955131496 -6.323359277876791 2.673741994573043 C -6.381209173465448 2.6683185668616103 -6.436582370399216 2.6623347182866555 -6.491214365545752 2.6563327916193358 C -6.6153747039529085 2.642719988063631 -6.7326292110741655 2.629866464387525 -6.864472738739189 2.6265581734835495 C -6.984710131101737 2.6238283815354584 -7.006783481887284 2.636374577641247 -7.032924403456407 2.657507867623482 C -7.053641897314096 2.6742120249747052 -7.079403178943419 2.695056065478993 -7.220936564119542 2.708578478572843 C -7.358456612789201 2.7217212517268936 -7.4661297309535914 2.7957148838032544 -7.541985406544217 2.862242263730213 C -7.463399939005505 2.762505428116885 -7.346525071824047 2.6373688727216704 -7.216941305705456 2.617736064406271 Z M -0.6390285373353812 2.909046444879902 C -0.7046881688285058 2.88567147144361 -0.7443334253991098 2.8715524813015003 -0.9777215979145906 2.869744672064358 C -1.0829180174240882 2.8689492360000113 -1.105587945257894 2.861501061942976 -1.1318373353812499 2.8528597337894173 C -1.1557908077734291 2.844995763607838 -1.1829441025153535 2.836065185976334 -1.2710386466414567 2.829358213706528 C -1.5645003201072871 2.8072487067362393 -1.699362889198344 2.7694835717722683 -1.9227900328171579 2.706933372167035 C -1.965201237520593 2.6950560654789877 -2.0107037960195466 2.6823110103571093 -2.0609789709045634 2.6686801287090347 C -2.190851986501097 2.633391692399953 -2.3379353460352554 2.636139562440417 -2.48011954253675 2.6386885734647887 C -2.540898089089584 2.6397913370994472 -2.6037194600803897 2.640912178826478 -2.664769178018795 2.639176681958818 C -2.8360138488144653 2.6335146359937824 -3.0057333540811886 2.6049878970107456 -3.1694191265679654 2.554354272551951 C -3.207628892498245 2.5443904439977576 -3.2438211947305904 2.527875450584312 -3.276387199129866 2.5055434231490246 C -3.302058090297333 2.488170376380052 -3.334002079517691 2.4665128217190477 -3.4451823476021417 2.4208294822963823 C -3.5558383510078224 2.375417314259289 -3.7516240913906804 2.373410646006054 -4.027134219131659 2.41497218036803 C -4.126456255288684 2.43091690740502 -4.224002265770185 2.4564355540149725 -4.318408443420548 2.491171339713716 C -4.355034658565118 2.503609067265274 -4.389618049271711 2.515377905399089 -4.426352732970507 2.525989745621135 C -4.696891385309333 2.6042678855895334 -5.029564441128852 2.620917808663644 -5.470037161759359 2.6358683910548395 C -5.537757695782833 2.6381643087860116 -5.609835050067822 2.6767248798143264 -5.673415700938232 2.710747849657407 C -5.70695524808467 2.7306343498497316 -5.742531648637053 2.7468649462175803 -5.779534103158671 2.7591609810281668 C -5.8880026573874025 2.786711993802261 -5.956030518981189 2.797775786333594 -6.122222422151978 2.804988945189807 C -6.149032233138845 2.8061459431015807 -6.176854417298516 2.809219218804727 -6.203790774931984 2.8122201821383905 C -6.244224551106791 2.8177322776571403 -6.2850142252339225 2.8202098726781983 -6.325817898439302 2.8196322000106857 C -6.386921850654823 2.816956642339714 -6.4467422583119705 2.813702585712851 -6.506146869844573 2.8104666071783604 C -6.6315545966253575 2.803669244446694 -6.750002257843133 2.797251521654825 -6.8772358719534346 2.7960041332811967 C -7.012821564739348 2.794684432538078 -7.0260908845399985 2.802204918964606 -7.042921588537822 2.811659761274876 C -7.0579987175756145 2.82015646468946 -7.076781855549558 2.830714070634391 -7.220086893778081 2.836969090594916 C -7.354133562160451 2.8415902200571725 -7.484537517991306 2.881790827110677 -7.597919024341497 2.953446239744204 L -7.606397649663708 2.958363480869235 C -7.6027820311894185 2.9547478623949446 -7.599166412715128 2.9512949467519944 -7.595153076208666 2.9472273759684193 C -7.52616707571919 2.8785306249568916 -7.3977764636971175 2.750718511890703 -7.21858641211125 2.7335985584149327 C -7.069478306231487 2.7193530216262265 -7.04042681179056 2.695869579635707 -7.017106072631383 2.6770141292922762 C -6.99756365477784 2.661195798467252 -6.982179198169731 2.6487580709156906 -6.865123550064558 2.6517047999722365 C -6.734346629849451 2.6549588565991 -6.617598309314593 2.667776224090458 -6.493980313678584 2.681316715276678 C -6.439203693793073 2.687336720036375 -6.383703950212705 2.6934290371655547 -6.325709429885078 2.698798230599878 C -6.282071870373439 2.7002858850566986 -6.2384607606318365 2.6951537321003847 -6.1963606789673165 2.6835764768231103 C -6.1705229742659355 2.6772737798229214 -6.144319892475414 2.6725765453452643 -6.117901758075198 2.6695117209581185 C -5.949540483819837 2.6540549519805237 -5.8814583879489355 2.6357056882235 -5.7709831654669745 2.57608413958244 C -5.740467345543957 2.559614997432044 -5.704094223692589 2.5234588126891335 -5.661791487543384 2.481626106941588 C -5.593293595547941 2.4137428700867716 -5.5156481888125395 2.3368025089538618 -5.449175043162701 2.3313248469653085 L -5.361044342851856 2.324202078570953 C -4.979795452830237 2.2936501024631926 -4.678668668198906 2.269497771054929 -4.417964498110154 2.1092535602743503 C -4.386400148829589 2.0898557671597753 -4.3554504546896595 2.068957492378375 -4.325495055630158 2.0487461851070887 C -4.238485197046342 1.990028541084603 -4.148510531313612 1.9293042288088844 -4.022325446560856 1.888827379989197 C -3.834674847745147 1.8286634885769928 -3.5923741756905354 1.7993408227504908 -3.4750835123845327 1.897432551958011 C -3.3736292579959253 1.982254961364878 -3.325975406504769 2.0257870077953415 -3.2944472134089526 2.054621565127814 C -3.2508613387699414 2.09556207415302 -3.2037884779288994 2.1326239372181814 -3.1537634985742864 2.165386037087717 C -3.009451121602188 2.2655650309923994 -2.840870232702838 2.325124034666878 -2.665655004544999 2.337832960219025 C -2.60243210441908 2.3405572344288896 -2.53910567455594 2.3397001668497257 -2.4759796593836905 2.3352658711022807 C -2.3330000268178495 2.3280346341536977 -2.1979747548954522 2.3210203343135745 -2.0688067849014056 2.394760873096741 C -2.031620148893322 2.4160026316331984 -1.996946367724874 2.4362320169968594 -1.963953849146967 2.4555394196495746 C -1.7458416646853587 2.5827911118522464 -1.6017592684848587 2.666890397564257 -1.2940701363226914 2.7180513989754753 C -1.2459894501684312 2.723634151536304 -1.1995787689866013 2.739081812293021 -1.157743241749552 2.763427410827826 C -1.1248772698182448 2.7820297678780546 -1.0965127428874313 2.798101191996276 -0.99749903096897 2.7989147061529924 C -0.7598263505614495 2.8009213744062276 -0.7192952674646476 2.82783965394732 -0.6456812753280783 2.8766505033502514 C -0.6115990558988109 2.8998619420504714 -0.576096494921968 2.9209159267658205 -0.5393820921839216 2.939688811449517 C -0.5730993029131826 2.9311839252763208 -0.6063584178791279 2.9209563853874854 -0.6390285373353812 2.909046444879902 Z" fill="#9b7eb9" transform="matrix(1,0,0,1,0,0)" fill-rule="nonzero"></path></g></g><g><path d=" M 0.06 0.040500000000000314 L 0.3225 0.040500000000000314 L 0.3225 1.0035000000000003 L 0.06 1.0035000000000003 L 0.06 0.040500000000000314 M 1.0200073242187502 0.2280000000000003 L 0.70500732421875 0.2280000000000003 L 0.70500732421875 0.4620000000000003 L 0.97800732421875 0.4620000000000003 L 0.97800732421875 0.6345000000000003 L 0.70500732421875 0.6345000000000003 L 0.70500732421875 1.0035000000000003 L 0.44250732421875 1.0035000000000003 L 0.44250732421875 0.040500000000000314 L 1.0200073242187502 0.040500000000000314 L 1.0200073242187502 0.2280000000000003 M 1.453510986328125 0.2550000000000002 L 1.708510986328125 0.2550000000000002 L 1.708510986328125 1.0035000000000003 L 1.458010986328125 1.0035000000000003 L 1.458010986328125 0.9075000000000003 Q 1.437010986328125 1.0035000000000003 1.321510986328125 1.0035000000000003 L 1.294510986328125 1.0035000000000003 Q 1.095010986328125 1.0035000000000003 1.095010986328125 0.8175000000000003 L 1.095010986328125 0.2550000000000002 L 1.350010986328125 0.2550000000000002 L 1.350010986328125 0.7830000000000003 Q 1.350010986328125 0.8160000000000003 1.387510986328125 0.8160000000000003 L 1.413010986328125 0.8160000000000003 Q 1.453510986328125 0.8160000000000003 1.453510986328125 0.7710000000000002 L 1.453510986328125 0.2550000000000002 M 2.215524169921875 0.2550000000000002 L 2.242524169921875 0.2550000000000002 Q 2.4420241699218748 0.2550000000000002 2.4420241699218748 0.4410000000000003 L 2.4420241699218748 1.0035000000000003 L 2.187024169921875 1.0035000000000003 L 2.187024169921875 0.47550000000000026 Q 2.187024169921875 0.4425000000000002 2.1495241699218752 0.4425000000000002 L 2.124024169921875 0.4425000000000002 Q 2.083524169921875 0.4425000000000002 2.083524169921875 0.48750000000000027 L 2.083524169921875 1.0035000000000003 L 1.828524169921875 1.0035000000000003 L 1.828524169921875 0.2550000000000002 L 2.079024169921875 0.2550000000000002 L 2.079024169921875 0.3510000000000003 Q 2.100024169921875 0.2550000000000002 2.215524169921875 0.2550000000000002 M 2.898037353515625 2.220446049250313e-16 L 3.153037353515625 2.220446049250313e-16 L 3.153037353515625 1.0035000000000003 L 2.902537353515625 1.0035000000000003 L 2.902537353515625 0.9075000000000003 Q 2.881537353515625 1.0035000000000003 2.766037353515625 1.0035000000000003 L 2.739037353515625 1.0035000000000003 Q 2.539537353515625 1.0035000000000003 2.539537353515625 0.8175000000000003 L 2.539537353515625 0.4410000000000003 Q 2.539537353515625 0.2550000000000002 2.739037353515625 0.2550000000000002 L 2.766037353515625 0.2550000000000002 Q 2.869537353515625 0.2550000000000002 2.898037353515625 0.3360000000000003 L 2.898037353515625 2.220446049250313e-16 M 2.832037353515625 0.8160000000000003 L 2.857537353515625 0.8160000000000003 Q 2.898037353515625 0.8160000000000003 2.898037353515625 0.7710000000000002 L 2.898037353515625 0.48750000000000027 Q 2.898037353515625 0.4425000000000002 2.857537353515625 0.4425000000000002 L 2.832037353515625 0.4425000000000002 Q 2.794537353515625 0.4425000000000002 2.794537353515625 0.47550000000000026 L 2.794537353515625 0.7830000000000003 Q 2.794537353515625 0.8160000000000003 2.832037353515625 0.8160000000000003 M 3.268543212890625 0.18000000000000027 L 3.268543212890625 2.220446049250313e-16 L 3.532543212890625 2.220446049250313e-16 L 3.532543212890625 0.18000000000000027 L 3.268543212890625 0.18000000000000027 M 3.528043212890625 1.0035000000000003 L 3.273043212890625 1.0035000000000003 L 3.273043212890625 0.2550000000000002 L 3.528043212890625 0.2550000000000002 L 3.528043212890625 1.0035000000000003 M 4.035043212890625 0.2550000000000002 L 4.062043212890625 0.2550000000000002 Q 4.261543212890625 0.2550000000000002 4.261543212890625 0.4410000000000003 L 4.261543212890625 1.0035000000000003 L 4.006543212890625 1.0035000000000003 L 4.006543212890625 0.47550000000000026 Q 4.006543212890625 0.4425000000000002 3.9690432128906252 0.4425000000000002 L 3.943543212890625 0.4425000000000002 Q 3.903043212890625 0.4425000000000002 3.903043212890625 0.48750000000000027 L 3.903043212890625 1.0035000000000003 L 3.648043212890625 1.0035000000000003 L 3.648043212890625 0.2550000000000002 L 3.898543212890625 0.2550000000000002 L 3.898543212890625 0.3510000000000003 Q 3.919543212890625 0.2550000000000002 4.035043212890625 0.2550000000000002 M 4.722056396484375 0.2550000000000002 L 4.972556396484375 0.2550000000000002 L 4.972556396484375 1.0110000000000003 Q 4.972556396484375 1.1970000000000003 4.752056396484375 1.1970000000000003 L 4.393556396484375 1.1970000000000003 L 4.393556396484375 1.0170000000000003 L 4.680056396484375 1.0170000000000003 Q 4.717556396484375 1.0170000000000003 4.717556396484375 0.9840000000000003 L 4.717556396484375 0.8775000000000003 Q 4.689056396484375 0.9585000000000002 4.585556396484375 0.9585000000000002 L 4.558556396484375 0.9585000000000002 Q 4.359056396484375 0.9585000000000002 4.359056396484375 0.7725000000000003 L 4.359056396484375 0.4410000000000003 Q 4.359056396484375 0.2550000000000002 4.558556396484375 0.2550000000000002 L 4.585556396484375 0.2550000000000002 Q 4.7010563964843755 0.2550000000000002 4.722056396484375 0.3510000000000003 L 4.722056396484375 0.2550000000000002 M 4.651556396484375 0.7710000000000002 L 4.6770563964843745 0.7710000000000002 Q 4.717556396484375 0.7710000000000002 4.717556396484375 0.7260000000000002 L 4.717556396484375 0.48750000000000027 Q 4.717556396484375 0.4425000000000002 4.6770563964843745 0.4425000000000002 L 4.651556396484375 0.4425000000000002 Q 4.614056396484375 0.4425000000000002 4.614056396484375 0.47550000000000026 L 4.614056396484375 0.7380000000000002 Q 4.614056396484375 0.7710000000000002 4.651556396484375 0.7710000000000002 M 5.39258056640625 0.040500000000000314 L 5.83808056640625 0.040500000000000314 Q 6.05858056640625 0.040500000000000314 6.05858056640625 0.22650000000000026 L 6.05858056640625 0.5025000000000003 Q 6.05858056640625 0.6885000000000003 5.83808056640625 0.6885000000000003 L 5.65508056640625 0.6885000000000003 L 5.65508056640625 1.0035000000000003 L 5.39258056640625 1.0035000000000003 L 5.39258056640625 0.040500000000000314 M 5.79608056640625 0.4680000000000003 L 5.79608056640625 0.26100000000000023 Q 5.79608056640625 0.2280000000000003 5.75858056640625 0.2280000000000003 L 5.65508056640625 0.2280000000000003 L 5.65508056640625 0.5010000000000002 L 5.75858056640625 0.5010000000000002 Q 5.79608056640625 0.5010000000000002 5.79608056640625 0.4680000000000003 M 6.561123046875 0.24750000000000028 L 6.583623046875 0.24750000000000028 L 6.583623046875 0.46950000000000025 L 6.498123046875 0.46950000000000025 Q 6.403623046875 0.46950000000000025 6.403623046875 0.5715000000000003 L 6.403623046875 1.0035000000000003 L 6.148623046875 1.0035000000000003 L 6.148623046875 0.2550000000000002 L 6.399123046875 0.2550000000000002 L 6.399123046875 0.3705000000000003 Q 6.411123046875 0.3135000000000002 6.453123046875 0.2805000000000003 Q 6.495123046875 0.24750000000000028 6.561123046875 0.24750000000000028 M 6.856656005859375 0.2550000000000002 L 7.047156005859375 0.2550000000000002 Q 7.161156005859375 0.2550000000000002 7.210656005859375 0.30300000000000027 Q 7.2601560058593755 0.3510000000000003 7.2601560058593755 0.4410000000000003 L 7.2601560058593755 0.8175000000000003 Q 7.2601560058593755 0.9075000000000003 7.210656005859375 0.9555000000000002 Q 7.161156005859375 1.0035000000000003 7.047156005859375 1.0035000000000003 L 6.856656005859375 1.0035000000000003 Q 6.742656005859375 1.0035000000000003 6.693156005859375 0.9555000000000002 Q 6.643656005859375 0.9075000000000003 6.643656005859375 0.8175000000000003 L 6.643656005859375 0.4410000000000003 Q 6.643656005859375 0.3510000000000003 6.693156005859375 0.30300000000000027 Q 6.742656005859375 0.2550000000000002 6.856656005859375 0.2550000000000002 M 7.009656005859375 0.7935000000000003 L 7.009656005859375 0.4650000000000003 Q 7.009656005859375 0.4320000000000003 6.972156005859375 0.4320000000000003 L 6.9316560058593755 0.4320000000000003 Q 6.894156005859375 0.4320000000000003 6.894156005859375 0.4650000000000003 L 6.894156005859375 0.7935000000000003 Q 6.894156005859375 0.8265000000000002 6.9316560058593755 0.8265000000000002 L 6.972156005859375 0.8265000000000002 Q 7.009656005859375 0.8265000000000002 7.009656005859375 0.7935000000000003" fill="#571680" fill-rule="nonzero"></path></g><g><path d=" M 0.090087890625 1.92439716796875 Q 0.090087890625 1.93501728515625 0.08697509765625 1.942524609375 Q 0.0838623046875 1.95003193359375 0.0750732421875 1.95003193359375 Q 0.064453125 1.95003193359375 0.06170654296875 1.942524609375 Q 0.0589599609375 1.93501728515625 0.0589599609375 1.92512958984375 L 0.0589599609375 1.55562275390625 Q 0.0589599609375 1.55012958984375 0.05914306640625 1.5473830078125 Q 0.059326171875 1.54463642578125 0.0604248046875 1.54353779296875 Q 0.0615234375 1.54243916015625 0.06427001953125 1.5422560546875 Q 0.0670166015625 1.54207294921875 0.072509765625 1.54207294921875 L 0.4306640625 1.54207294921875 Q 0.4354248046875 1.54207294921875 0.43963623046875 1.5422560546875 Q 0.44384765625 1.54243916015625 0.44696044921875 1.5437208984375 Q 0.4500732421875 1.54500263671875 0.451904296875 1.54756611328125 Q 0.4537353515625 1.55012958984375 0.4537353515625 1.55489033203125 Q 0.4537353515625 1.56331318359375 0.447509765625 1.56477802734375 Q 0.4412841796875 1.56624287109375 0.4306640625 1.56624287109375 L 0.090087890625 1.56624287109375 L 0.090087890625 1.73250263671875 L 0.3782958984375 1.73250263671875 Q 0.388916015625 1.73250263671875 0.39569091796875 1.73396748046875 Q 0.4024658203125 1.73543232421875 0.4024658203125 1.74385517578125 Q 0.4024658203125 1.74861591796875 0.40045166015625 1.75117939453125 Q 0.3984375 1.75374287109375 0.3951416015625 1.755024609375 Q 0.391845703125 1.75630634765625 0.387451171875 1.756489453125 Q 0.383056640625 1.75667255859375 0.3782958984375 1.75667255859375 L 0.090087890625 1.75667255859375 L 0.090087890625 1.92439716796875 M 0.52716064453125 1.92696064453125 Q 0.52716064453125 1.93172138671875 0.52679443359375 1.9359328125 Q 0.52642822265625 1.94014423828125 0.525146484375 1.94325703125 Q 0.52386474609375 1.94636982421875 0.52093505859375 1.94820087890625 Q 0.51800537109375 1.95003193359375 0.51251220703125 1.95003193359375 Q 0.50225830078125 1.95003193359375 0.50006103515625 1.94380634765625 Q 0.49786376953125 1.93758076171875 0.49786376953125 1.92696064453125 L 0.49786376953125 1.69185322265625 Q 0.49786376953125 1.68269794921875 0.50042724609375 1.67610615234375 Q 0.50299072265625 1.66951435546875 0.51324462890625 1.66951435546875 Q 0.52239990234375 1.66951435546875 0.5247802734375 1.67610615234375 Q 0.52716064453125 1.68269794921875 0.52716064453125 1.69112080078125 L 0.52716064453125 1.92696064453125 M 0.49310302734375 1.58675068359375 Q 0.49310302734375 1.57832783203125 0.49859619140625 1.5726515625 Q 0.50408935546875 1.56697529296875 0.51251220703125 1.56697529296875 Q 0.52093505859375 1.56697529296875 0.52679443359375 1.5726515625 Q 0.53265380859375 1.57832783203125 0.53265380859375 1.58675068359375 Q 0.53265380859375 1.59517353515625 0.52679443359375 1.60030048828125 Q 0.52093505859375 1.60542744140625 0.51251220703125 1.60542744140625 Q 0.50408935546875 1.60542744140625 0.49859619140625 1.60030048828125 Q 0.49310302734375 1.59517353515625 0.49310302734375 1.58675068359375 M 0.97412109375 1.92366474609375 Q 0.97412109375 1.92842548828125 0.973388671875 1.93318623046875 Q 0.97265625 1.93794697265625 0.97100830078125 1.94160908203125 Q 0.9693603515625 1.94527119140625 0.9664306640625 1.9476515625 Q 0.9635009765625 1.95003193359375 0.9591064453125 1.95003193359375 Q 0.95361328125 1.95003193359375 0.95086669921875 1.9476515625 Q 0.9481201171875 1.94527119140625 0.9466552734375 1.94160908203125 Q 0.9451904296875 1.93794697265625 0.94500732421875 1.93318623046875 Q 0.94482421875 1.92842548828125 0.94482421875 1.92366474609375 L 0.94482421875 1.79695576171875 Q 0.94482421875 1.76839130859375 0.94061279296875 1.74715107421875 Q 0.9364013671875 1.72591083984375 0.92413330078125 1.71181171875 Q 0.911865234375 1.69771259765625 0.89007568359375 1.69075458984375 Q 0.8682861328125 1.68379658203125 0.8331298828125 1.68379658203125 Q 0.8115234375 1.68379658203125 0.787353515625 1.6872755859375 Q 0.76318359375 1.69075458984375 0.7412109375 1.699360546875 Q 0.71923828125 1.70796650390625 0.702392578125 1.72224873046875 Q 0.685546875 1.73653095703125 0.678955078125 1.75813740234375 L 0.678955078125 1.92366474609375 Q 0.678955078125 1.92842548828125 0.6785888671875 1.93318623046875 Q 0.67822265625 1.93794697265625 0.6767578125 1.94160908203125 Q 0.67529296875 1.94527119140625 0.67254638671875 1.9476515625 Q 0.6697998046875 1.95003193359375 0.6654052734375 1.95003193359375 Q 0.6602783203125 1.95003193359375 0.65716552734375 1.9476515625 Q 0.654052734375 1.94527119140625 0.65240478515625 1.94160908203125 Q 0.6507568359375 1.93794697265625 0.65020751953125 1.93318623046875 Q 0.649658203125 1.92842548828125 0.649658203125 1.92366474609375 L 0.649658203125 1.68636005859375 Q 0.649658203125 1.68013447265625 0.6522216796875 1.6748244140625 Q 0.65478515625 1.66951435546875 0.6650390625 1.66951435546875 Q 0.6741943359375 1.66951435546875 0.67657470703125 1.674458203125 Q 0.678955078125 1.67940205078125 0.678955078125 1.68636005859375 L 0.678955078125 1.73250263671875 Q 0.689208984375 1.70906513671875 0.70751953125 1.694966015625 Q 0.725830078125 1.68086689453125 0.74761962890625 1.67372578125 Q 0.7694091796875 1.66658466796875 0.79193115234375 1.66438740234375 Q 0.814453125 1.66219013671875 0.8331298828125 1.66219013671875 Q 0.8726806640625 1.66219013671875 0.89959716796875 1.6689650390625 Q 0.926513671875 1.67573994140625 0.94317626953125 1.69148701171875 Q 0.9598388671875 1.70723408203125 0.96697998046875 1.733051953125 Q 0.97412109375 1.75886982421875 0.97412109375 1.79695576171875 L 0.97412109375 1.92366474609375 M 1.10687255859375 1.86800068359375 Q 1.10687255859375 1.88557880859375 1.1158447265625 1.89766376953125 Q 1.12481689453125 1.90974873046875 1.14093017578125 1.91743916015625 Q 1.15704345703125 1.92512958984375 1.17919921875 1.92860859375 Q 1.20135498046875 1.93208759765625 1.22772216796875 1.93208759765625 Q 1.25994873046875 1.93208759765625 1.28485107421875 1.9275099609375 Q 1.30975341796875 1.92293232421875 1.32843017578125 1.91597431640625 Q 1.34710693359375 1.90901630859375 1.35992431640625 1.9007765625 Q 1.37274169921875 1.89253681640625 1.38116455078125 1.88484638671875 L 1.38116455078125 1.81123798828125 Q 1.34454345703125 1.80611103515625 1.30535888671875 1.8015333984375 Q 1.26617431640625 1.79695576171875 1.22625732421875 1.79695576171875 Q 1.19805908203125 1.79695576171875 1.1759033203125 1.80025166015625 Q 1.15374755859375 1.80354755859375 1.13836669921875 1.81160419921875 Q 1.12298583984375 1.81966083984375 1.11492919921875 1.83339375 Q 1.10687255859375 1.84712666015625 1.10687255859375 1.86800068359375 M 1.26251220703125 1.68379658203125 Q 1.22735595703125 1.68379658203125 1.20245361328125 1.68562763671875 Q 1.17755126953125 1.68745869140625 1.1597900390625 1.69038837890625 Q 1.14202880859375 1.69331806640625 1.12994384765625 1.69661396484375 Q 1.11785888671875 1.69990986328125 1.10870361328125 1.70320576171875 Q 1.10430908203125 1.70320576171875 1.10064697265625 1.69881123046875 Q 1.09698486328125 1.69441669921875 1.09698486328125 1.68928974609375 Q 1.09698486328125 1.68452900390625 1.10137939453125 1.68233173828125 Q 1.10430908203125 1.68086689453125 1.1151123046875 1.67757099609375 Q 1.12591552734375 1.67427509765625 1.1455078125 1.67079609375 Q 1.16510009765625 1.66731708984375 1.1942138671875 1.66475361328125 Q 1.22332763671875 1.66219013671875 1.26287841796875 1.66219013671875 Q 1.28155517578125 1.66219013671875 1.29986572265625 1.6645705078125 Q 1.31817626953125 1.66695087890625 1.33447265625 1.67317646484375 Q 1.35076904296875 1.67940205078125 1.3648681640625 1.69038837890625 Q 1.37896728515625 1.70137470703125 1.3890380859375 1.7187697265625 Q 1.39910888671875 1.73616474609375 1.40496826171875 1.760883984375 Q 1.41082763671875 1.78560322265625 1.41082763671875 1.81892841796875 L 1.41082763671875 1.92439716796875 Q 1.41082763671875 1.92879169921875 1.41046142578125 1.93318623046875 Q 1.41009521484375 1.93758076171875 1.408447265625 1.9414259765625 Q 1.40679931640625 1.94527119140625 1.40386962890625 1.9476515625 Q 1.40093994140625 1.95003193359375 1.39581298828125 1.95003193359375 Q 1.38739013671875 1.95003193359375 1.38427734375 1.94234150390625 Q 1.38116455078125 1.93465107421875 1.38116455078125 1.92293232421875 L 1.38116455078125 1.89766376953125 Q 1.37384033203125 1.90681904296875 1.36212158203125 1.91670673828125 Q 1.35040283203125 1.92659443359375 1.33245849609375 1.9348341796875 Q 1.31451416015625 1.94307392578125 1.28961181640625 1.948383984375 Q 1.26470947265625 1.95369404296875 1.23065185546875 1.95369404296875 Q 1.19879150390625 1.95369404296875 1.1707763671875 1.94893330078125 Q 1.14276123046875 1.94417255859375 1.1220703125 1.93391865234375 Q 1.10137939453125 1.92366474609375 1.0894775390625 1.907368359375 Q 1.07757568359375 1.89107197265625 1.07757568359375 1.86800068359375 Q 1.07757568359375 1.84126728515625 1.0887451171875 1.8235060546875 Q 1.09991455078125 1.80574482421875 1.11968994140625 1.7949416015625 Q 1.13946533203125 1.78413837890625 1.166015625 1.77974384765625 Q 1.19256591796875 1.77534931640625 1.22332763671875 1.77534931640625 Q 1.24639892578125 1.77534931640625 1.2696533203125 1.776997265625 Q 1.29290771484375 1.77864521484375 1.31378173828125 1.7817580078125 Q 1.33465576171875 1.78487080078125 1.35205078125 1.7894484375 Q 1.36944580078125 1.79402607421875 1.38116455078125 1.80025166015625 Q 1.38116455078125 1.76289814453125 1.37127685546875 1.74019306640625 Q 1.36138916015625 1.71748798828125 1.34490966796875 1.7048537109375 Q 1.32843017578125 1.69221943359375 1.3070068359375 1.6880080078125 Q 1.28558349609375 1.68379658203125 1.26251220703125 1.68379658203125 M 1.847900390625 1.92366474609375 Q 1.847900390625 1.92842548828125 1.84716796875 1.93318623046875 Q 1.846435546875 1.93794697265625 1.84478759765625 1.94160908203125 Q 1.8431396484375 1.94527119140625 1.8402099609375 1.9476515625 Q 1.8372802734375 1.95003193359375 1.8328857421875 1.95003193359375 Q 1.827392578125 1.95003193359375 1.82464599609375 1.9476515625 Q 1.8218994140625 1.94527119140625 1.8204345703125 1.94160908203125 Q 1.8189697265625 1.93794697265625 1.81878662109375 1.93318623046875 Q 1.818603515625 1.92842548828125 1.818603515625 1.92366474609375 L 1.818603515625 1.79695576171875 Q 1.818603515625 1.76839130859375 1.81439208984375 1.74715107421875 Q 1.8101806640625 1.72591083984375 1.79791259765625 1.71181171875 Q 1.78564453125 1.69771259765625 1.76385498046875 1.69075458984375 Q 1.7420654296875 1.68379658203125 1.7069091796875 1.68379658203125 Q 1.685302734375 1.68379658203125 1.6611328125 1.6872755859375 Q 1.636962890625 1.69075458984375 1.614990234375 1.699360546875 Q 1.593017578125 1.70796650390625 1.576171875 1.72224873046875 Q 1.559326171875 1.73653095703125 1.552734375 1.75813740234375 L 1.552734375 1.92366474609375 Q 1.552734375 1.92842548828125 1.5523681640625 1.93318623046875 Q 1.552001953125 1.93794697265625 1.550537109375 1.94160908203125 Q 1.549072265625 1.94527119140625 1.54632568359375 1.9476515625 Q 1.5435791015625 1.95003193359375 1.5391845703125 1.95003193359375 Q 1.5340576171875 1.95003193359375 1.53094482421875 1.9476515625 Q 1.52783203125 1.94527119140625 1.52618408203125 1.94160908203125 Q 1.5245361328125 1.93794697265625 1.52398681640625 1.93318623046875 Q 1.5234375 1.92842548828125 1.5234375 1.92366474609375 L 1.5234375 1.68636005859375 Q 1.5234375 1.68013447265625 1.5260009765625 1.6748244140625 Q 1.528564453125 1.66951435546875 1.538818359375 1.66951435546875 Q 1.5479736328125 1.66951435546875 1.55035400390625 1.674458203125 Q 1.552734375 1.67940205078125 1.552734375 1.68636005859375 L 1.552734375 1.73250263671875 Q 1.56298828125 1.70906513671875 1.581298828125 1.694966015625 Q 1.599609375 1.68086689453125 1.62139892578125 1.67372578125 Q 1.6431884765625 1.66658466796875 1.66571044921875 1.66438740234375 Q 1.688232421875 1.66219013671875 1.7069091796875 1.66219013671875 Q 1.7464599609375 1.66219013671875 1.77337646484375 1.6689650390625 Q 1.80029296875 1.67573994140625 1.81695556640625 1.69148701171875 Q 1.8336181640625 1.70723408203125 1.84075927734375 1.733051953125 Q 1.847900390625 1.75886982421875 1.847900390625 1.79695576171875 L 1.847900390625 1.92366474609375 M 2.11688232421875 1.67500751953125 Q 2.12237548828125 1.67500751953125 2.1251220703125 1.6777541015625 Q 2.12786865234375 1.68050068359375 2.12786865234375 1.68379658203125 Q 2.12786865234375 1.68709248046875 2.1251220703125 1.6898390625 Q 2.12237548828125 1.69258564453125 2.11688232421875 1.69258564453125 L 1.99530029296875 1.69258564453125 L 1.99530029296875 1.84785908203125 Q 1.99530029296875 1.87459248046875 2.00079345703125 1.89107197265625 Q 2.00628662109375 1.90755146484375 2.015625 1.91670673828125 Q 2.02496337890625 1.92586201171875 2.03759765625 1.9289748046875 Q 2.05023193359375 1.93208759765625 2.06451416015625 1.93208759765625 Q 2.08209228515625 1.93208759765625 2.09893798828125 1.92586201171875 Q 2.11578369140625 1.91963642578125 2.13775634765625 1.90791767578125 Q 2.14215087890625 1.90572041015625 2.14617919921875 1.90572041015625 Q 2.15093994140625 1.90572041015625 2.1536865234375 1.9084669921875 Q 2.15643310546875 1.91121357421875 2.15643310546875 1.91524189453125 Q 2.15643310546875 1.92256611328125 2.14837646484375 1.92696064453125 Q 2.13299560546875 1.93538349609375 2.12109375 1.94051044921875 Q 2.10919189453125 1.94563740234375 2.09912109375 1.94856708984375 Q 2.08905029296875 1.95149677734375 2.07952880859375 1.95259541015625 Q 2.07000732421875 1.95369404296875 2.05938720703125 1.95369404296875 Q 2.03961181640625 1.95369404296875 2.0225830078125 1.94820087890625 Q 2.00555419921875 1.94270771484375 1.992919921875 1.9304396484375 Q 1.98028564453125 1.91817158203125 1.97314453125 1.897846875 Q 1.96600341796875 1.87752216796875 1.96600341796875 1.84785908203125 L 1.96600341796875 1.69258564453125 L 1.93377685546875 1.69258564453125 Q 1.92864990234375 1.69258564453125 1.92608642578125 1.6898390625 Q 1.92352294921875 1.68709248046875 1.92352294921875 1.68379658203125 Q 1.92352294921875 1.68050068359375 1.92608642578125 1.6777541015625 Q 1.92864990234375 1.67500751953125 1.93377685546875 1.67500751953125 L 1.96600341796875 1.67500751953125 L 1.96600341796875 1.58382099609375 Q 1.96600341796875 1.57210224609375 1.97076416015625 1.568989453125 Q 1.97552490234375 1.56587666015625 1.98065185546875 1.56587666015625 Q 1.98687744140625 1.56587666015625 1.9910888671875 1.568989453125 Q 1.99530029296875 1.57210224609375 1.99530029296875 1.58382099609375 L 1.99530029296875 1.67500751953125 L 2.11688232421875 1.67500751953125 M 2.2525634765625 1.92696064453125 Q 2.2525634765625 1.93172138671875 2.252197265625 1.9359328125 Q 2.2518310546875 1.94014423828125 2.25054931640625 1.94325703125 Q 2.249267578125 1.94636982421875 2.246337890625 1.94820087890625 Q 2.243408203125 1.95003193359375 2.2379150390625 1.95003193359375 Q 2.2276611328125 1.95003193359375 2.2254638671875 1.94380634765625 Q 2.2232666015625 1.93758076171875 2.2232666015625 1.92696064453125 L 2.2232666015625 1.69185322265625 Q 2.2232666015625 1.68269794921875 2.225830078125 1.67610615234375 Q 2.2283935546875 1.66951435546875 2.2386474609375 1.66951435546875 Q 2.247802734375 1.66951435546875 2.25018310546875 1.67610615234375 Q 2.2525634765625 1.68269794921875 2.2525634765625 1.69112080078125 L 2.2525634765625 1.92696064453125 M 2.218505859375 1.58675068359375 Q 2.218505859375 1.57832783203125 2.2239990234375 1.5726515625 Q 2.2294921875 1.56697529296875 2.2379150390625 1.56697529296875 Q 2.246337890625 1.56697529296875 2.252197265625 1.5726515625 Q 2.258056640625 1.57832783203125 2.258056640625 1.58675068359375 Q 2.258056640625 1.59517353515625 2.252197265625 1.60030048828125 Q 2.246337890625 1.60542744140625 2.2379150390625 1.60542744140625 Q 2.2294921875 1.60542744140625 2.2239990234375 1.60030048828125 Q 2.218505859375 1.59517353515625 2.218505859375 1.58675068359375 M 2.39520263671875 1.86800068359375 Q 2.39520263671875 1.88557880859375 2.4041748046875 1.89766376953125 Q 2.41314697265625 1.90974873046875 2.42926025390625 1.91743916015625 Q 2.44537353515625 1.92512958984375 2.467529296875 1.92860859375 Q 2.48968505859375 1.93208759765625 2.51605224609375 1.93208759765625 Q 2.54827880859375 1.93208759765625 2.57318115234375 1.9275099609375 Q 2.59808349609375 1.92293232421875 2.61676025390625 1.91597431640625 Q 2.63543701171875 1.90901630859375 2.64825439453125 1.9007765625 Q 2.66107177734375 1.89253681640625 2.66949462890625 1.88484638671875 L 2.66949462890625 1.81123798828125 Q 2.63287353515625 1.80611103515625 2.59368896484375 1.8015333984375 Q 2.55450439453125 1.79695576171875 2.51458740234375 1.79695576171875 Q 2.48638916015625 1.79695576171875 2.4642333984375 1.80025166015625 Q 2.44207763671875 1.80354755859375 2.42669677734375 1.81160419921875 Q 2.41131591796875 1.81966083984375 2.40325927734375 1.83339375 Q 2.39520263671875 1.84712666015625 2.39520263671875 1.86800068359375 M 2.55084228515625 1.68379658203125 Q 2.51568603515625 1.68379658203125 2.49078369140625 1.68562763671875 Q 2.46588134765625 1.68745869140625 2.4481201171875 1.69038837890625 Q 2.43035888671875 1.69331806640625 2.41827392578125 1.69661396484375 Q 2.40618896484375 1.69990986328125 2.39703369140625 1.70320576171875 Q 2.39263916015625 1.70320576171875 2.38897705078125 1.69881123046875 Q 2.38531494140625 1.69441669921875 2.38531494140625 1.68928974609375 Q 2.38531494140625 1.68452900390625 2.38970947265625 1.68233173828125 Q 2.39263916015625 1.68086689453125 2.4034423828125 1.67757099609375 Q 2.41424560546875 1.67427509765625 2.433837890625 1.67079609375 Q 2.45343017578125 1.66731708984375 2.4825439453125 1.66475361328125 Q 2.51165771484375 1.66219013671875 2.55120849609375 1.66219013671875 Q 2.56988525390625 1.66219013671875 2.58819580078125 1.6645705078125 Q 2.60650634765625 1.66695087890625 2.622802734375 1.67317646484375 Q 2.63909912109375 1.67940205078125 2.6531982421875 1.69038837890625 Q 2.66729736328125 1.70137470703125 2.6773681640625 1.7187697265625 Q 2.68743896484375 1.73616474609375 2.69329833984375 1.760883984375 Q 2.69915771484375 1.78560322265625 2.69915771484375 1.81892841796875 L 2.69915771484375 1.92439716796875 Q 2.69915771484375 1.92879169921875 2.69879150390625 1.93318623046875 Q 2.69842529296875 1.93758076171875 2.69677734375 1.9414259765625 Q 2.69512939453125 1.94527119140625 2.69219970703125 1.9476515625 Q 2.68927001953125 1.95003193359375 2.68414306640625 1.95003193359375 Q 2.67572021484375 1.95003193359375 2.672607421875 1.94234150390625 Q 2.66949462890625 1.93465107421875 2.66949462890625 1.92293232421875 L 2.66949462890625 1.89766376953125 Q 2.66217041015625 1.90681904296875 2.65045166015625 1.91670673828125 Q 2.63873291015625 1.92659443359375 2.62078857421875 1.9348341796875 Q 2.60284423828125 1.94307392578125 2.57794189453125 1.948383984375 Q 2.55303955078125 1.95369404296875 2.51898193359375 1.95369404296875 Q 2.48712158203125 1.95369404296875 2.4591064453125 1.94893330078125 Q 2.43109130859375 1.94417255859375 2.410400390625 1.93391865234375 Q 2.38970947265625 1.92366474609375 2.3778076171875 1.907368359375 Q 2.36590576171875 1.89107197265625 2.36590576171875 1.86800068359375 Q 2.36590576171875 1.84126728515625 2.3770751953125 1.8235060546875 Q 2.38824462890625 1.80574482421875 2.40802001953125 1.7949416015625 Q 2.42779541015625 1.78413837890625 2.454345703125 1.77974384765625 Q 2.48089599609375 1.77534931640625 2.51165771484375 1.77534931640625 Q 2.53472900390625 1.77534931640625 2.5579833984375 1.776997265625 Q 2.58123779296875 1.77864521484375 2.60211181640625 1.7817580078125 Q 2.62298583984375 1.78487080078125 2.640380859375 1.7894484375 Q 2.65777587890625 1.79402607421875 2.66949462890625 1.80025166015625 Q 2.66949462890625 1.76289814453125 2.65960693359375 1.74019306640625 Q 2.64971923828125 1.71748798828125 2.63323974609375 1.7048537109375 Q 2.61676025390625 1.69221943359375 2.5953369140625 1.6880080078125 Q 2.57391357421875 1.68379658203125 2.55084228515625 1.68379658203125 M 2.8414306640625 1.92439716796875 Q 2.8414306640625 1.93501728515625 2.8388671875 1.942524609375 Q 2.8363037109375 1.95003193359375 2.8271484375 1.95003193359375 Q 2.8216552734375 1.95003193359375 2.8187255859375 1.9480177734375 Q 2.8157958984375 1.94600361328125 2.8143310546875 1.942524609375 Q 2.8128662109375 1.93904560546875 2.8125 1.93465107421875 Q 2.8121337890625 1.93025654296875 2.8121337890625 1.92512958984375 L 2.8121337890625 1.56844013671875 Q 2.8121337890625 1.56294697265625 2.8125 1.55818623046875 Q 2.8128662109375 1.55342548828125 2.81451416015625 1.549946484375 Q 2.816162109375 1.54646748046875 2.81927490234375 1.54427021484375 Q 2.8223876953125 1.54207294921875 2.827880859375 1.54207294921875 Q 2.832275390625 1.54207294921875 2.83502197265625 1.54427021484375 Q 2.8377685546875 1.54646748046875 2.8392333984375 1.55012958984375 Q 2.8406982421875 1.55379169921875 2.841064453125 1.5583693359375 Q 2.8414306640625 1.56294697265625 2.8414306640625 1.56770771484375 L 2.8414306640625 1.92439716796875 M 3.4918212890625 1.68745869140625 Q 3.4918212890625 1.72078388671875 3.48358154296875 1.7436720703125 Q 3.475341796875 1.76656025390625 3.460693359375 1.78157490234375 Q 3.446044921875 1.79658955078125 3.42535400390625 1.804829296875 Q 3.4046630859375 1.81306904296875 3.3797607421875 1.81709736328125 Q 3.3548583984375 1.82112568359375 3.32647705078125 1.82185810546875 Q 3.298095703125 1.82259052734375 3.26806640625 1.82259052734375 L 3.158935546875 1.82259052734375 L 3.158935546875 1.92219990234375 Q 3.158935546875 1.93282001953125 3.15618896484375 1.9414259765625 Q 3.1534423828125 1.95003193359375 3.1446533203125 1.95003193359375 Q 3.134033203125 1.95003193359375 3.13092041015625 1.9417921875 Q 3.1278076171875 1.93355244140625 3.1278076171875 1.92219990234375 L 3.1278076171875 1.55562275390625 Q 3.1278076171875 1.55012958984375 3.12872314453125 1.5473830078125 Q 3.129638671875 1.54463642578125 3.1318359375 1.54353779296875 Q 3.134033203125 1.54243916015625 3.13751220703125 1.5422560546875 Q 3.1409912109375 1.54207294921875 3.146484375 1.54207294921875 L 3.26806640625 1.54207294921875 Q 3.3013916015625 1.54207294921875 3.33087158203125 1.54390400390625 Q 3.3603515625 1.54573505859375 3.38525390625 1.551411328125 Q 3.41015625 1.55708759765625 3.429931640625 1.56697529296875 Q 3.44970703125 1.57686298828125 3.46343994140625 1.593159375 Q 3.4771728515625 1.60945576171875 3.4844970703125 1.63252705078125 Q 3.4918212890625 1.65559833984375 3.4918212890625 1.68745869140625 M 3.460693359375 1.68745869140625 Q 3.460693359375 1.64937275390625 3.44915771484375 1.62556904296875 Q 3.4376220703125 1.60176533203125 3.41400146484375 1.58858173828125 Q 3.390380859375 1.57539814453125 3.3541259765625 1.5708205078125 Q 3.31787109375 1.56624287109375 3.26806640625 1.56624287109375 L 3.158935546875 1.56624287109375 L 3.158935546875 1.79988544921875 L 3.26806640625 1.79988544921875 Q 3.31787109375 1.79988544921875 3.35430908203125 1.79677265625 Q 3.3907470703125 1.79365986328125 3.41436767578125 1.78212421875 Q 3.43798828125 1.77058857421875 3.4493408203125 1.74824970703125 Q 3.460693359375 1.72591083984375 3.460693359375 1.68745869140625 M 3.72784423828125 1.95369404296875 Q 3.67730712890625 1.95369404296875 3.64251708984375 1.9436232421875 Q 3.60772705078125 1.93355244140625 3.5863037109375 1.91487568359375 Q 3.56488037109375 1.89619892578125 3.55535888671875 1.86946552734375 Q 3.54583740234375 1.84273212890625 3.54583740234375 1.80904072265625 Q 3.54583740234375 1.77022236328125 3.556640625 1.7425734375 Q 3.56744384765625 1.71492451171875 3.5899658203125 1.69698017578125 Q 3.61248779296875 1.67903583984375 3.646728515625 1.67061298828125 Q 3.68096923828125 1.66219013671875 3.72784423828125 1.66219013671875 Q 3.77471923828125 1.66219013671875 3.8089599609375 1.67061298828125 Q 3.84320068359375 1.67903583984375 3.86572265625 1.69698017578125 Q 3.88824462890625 1.71492451171875 3.8990478515625 1.7425734375 Q 3.90985107421875 1.77022236328125 3.90985107421875 1.80904072265625 Q 3.90985107421875 1.84273212890625 3.90032958984375 1.86946552734375 Q 3.89080810546875 1.89619892578125 3.869384765625 1.91487568359375 Q 3.84796142578125 1.93355244140625 3.81317138671875 1.9436232421875 Q 3.77838134765625 1.95369404296875 3.72784423828125 1.95369404296875 M 3.72784423828125 1.93208759765625 Q 3.76116943359375 1.93208759765625 3.78533935546875 1.92714375 Q 3.80950927734375 1.92219990234375 3.8265380859375 1.91341083984375 Q 3.84356689453125 1.90462177734375 3.85400390625 1.89290302734375 Q 3.86444091796875 1.88118427734375 3.8704833984375 1.8674513671875 Q 3.87652587890625 1.85371845703125 3.8785400390625 1.8388869140625 Q 3.88055419921875 1.82405537109375 3.88055419921875 1.80904072265625 Q 3.88055419921875 1.77498310546875 3.87176513671875 1.75117939453125 Q 3.86297607421875 1.72737568359375 3.84429931640625 1.71236103515625 Q 3.82562255859375 1.69734638671875 3.79669189453125 1.690571484375 Q 3.76776123046875 1.68379658203125 3.72784423828125 1.68379658203125 Q 3.68756103515625 1.68379658203125 3.6588134765625 1.690571484375 Q 3.63006591796875 1.69734638671875 3.61138916015625 1.71236103515625 Q 3.59271240234375 1.72737568359375 3.58392333984375 1.75117939453125 Q 3.57513427734375 1.77498310546875 3.57513427734375 1.80904072265625 Q 3.57513427734375 1.82405537109375 3.5771484375 1.8388869140625 Q 3.57916259765625 1.85371845703125 3.585205078125 1.8674513671875 Q 3.59124755859375 1.88118427734375 3.6016845703125 1.89290302734375 Q 3.61212158203125 1.90462177734375 3.629150390625 1.91341083984375 Q 3.64617919921875 1.92219990234375 3.67034912109375 1.92714375 Q 3.69451904296875 1.93208759765625 3.72784423828125 1.93208759765625 M 4.291259765625 1.91707294921875 L 4.368896484375 1.68416279296875 Q 4.371826171875 1.67610615234375 4.376220703125 1.67281025390625 Q 4.380615234375 1.66951435546875 4.3853759765625 1.66951435546875 Q 4.3912353515625 1.66951435546875 4.39581298828125 1.6740919921875 Q 4.400390625 1.67866962890625 4.400390625 1.68636005859375 Q 4.400390625 1.69185322265625 4.39892578125 1.69441669921875 L 4.3125 1.93208759765625 Q 4.308837890625 1.94160908203125 4.30316162109375 1.94673603515625 Q 4.2974853515625 1.95186298828125 4.291259765625 1.95186298828125 Q 4.2843017578125 1.95186298828125 4.279541015625 1.9472853515625 Q 4.2747802734375 1.94270771484375 4.2711181640625 1.93208759765625 L 4.19091796875 1.70320576171875 L 4.1107177734375 1.93208759765625 Q 4.106689453125 1.94270771484375 4.1015625 1.9472853515625 Q 4.096435546875 1.95186298828125 4.090576171875 1.95186298828125 Q 4.0762939453125 1.95186298828125 4.0693359375 1.93208759765625 L 3.98291015625 1.69441669921875 Q 3.9814453125 1.69185322265625 3.9814453125 1.68636005859375 Q 3.9814453125 1.67866962890625 3.98602294921875 1.6740919921875 Q 3.9906005859375 1.66951435546875 3.9964599609375 1.66951435546875 Q 4.001220703125 1.66951435546875 4.005615234375 1.67281025390625 Q 4.010009765625 1.67610615234375 4.012939453125 1.68416279296875 L 4.090576171875 1.91707294921875 L 4.168212890625 1.68928974609375 Q 4.1748046875 1.66951435546875 4.1905517578125 1.66951435546875 Q 4.197509765625 1.66951435546875 4.20391845703125 1.674458203125 Q 4.2103271484375 1.67940205078125 4.213623046875 1.68928974609375 L 4.291259765625 1.91707294921875 M 4.65399169921875 1.68379658203125 Q 4.61993408203125 1.68379658203125 4.59356689453125 1.68965595703125 Q 4.56719970703125 1.69551533203125 4.5487060546875 1.7085158203125 Q 4.53021240234375 1.72151630859375 4.51995849609375 1.74202412109375 Q 4.50970458984375 1.76253193359375 4.50823974609375 1.79219501953125 L 4.78436279296875 1.79219501953125 L 4.78436279296875 1.77241962890625 Q 4.78436279296875 1.75410908203125 4.777587890625 1.73799580078125 Q 4.77081298828125 1.72188251953125 4.75543212890625 1.70979755859375 Q 4.74005126953125 1.69771259765625 4.71514892578125 1.69075458984375 Q 4.69024658203125 1.68379658203125 4.65399169921875 1.68379658203125 M 4.63494873046875 1.93208759765625 Q 4.66973876953125 1.93208759765625 4.69573974609375 1.92769306640625 Q 4.72174072265625 1.92329853515625 4.74041748046875 1.91707294921875 Q 4.75909423828125 1.91084736328125 4.77099609375 1.90425556640625 Q 4.78289794921875 1.89766376953125 4.78948974609375 1.89326923828125 Q 4.79168701171875 1.89253681640625 4.79241943359375 1.89253681640625 Q 4.79644775390625 1.89253681640625 4.7999267578125 1.89638203125 Q 4.80340576171875 1.90022724609375 4.80340576171875 1.90462177734375 Q 4.80340576171875 1.90865009765625 4.79974365234375 1.91121357421875 Q 4.79644775390625 1.91450947265625 4.78564453125 1.92146748046875 Q 4.77484130859375 1.92842548828125 4.75469970703125 1.9355666015625 Q 4.73455810546875 1.94270771484375 4.70489501953125 1.94820087890625 Q 4.67523193359375 1.95369404296875 4.63458251953125 1.95369404296875 Q 4.59210205078125 1.95369404296875 4.56243896484375 1.94307392578125 Q 4.53277587890625 1.93245380859375 4.51409912109375 1.91341083984375 Q 4.49542236328125 1.89436787109375 4.48699951171875 1.86763447265625 Q 4.47857666015625 1.84090107421875 4.47857666015625 1.80904072265625 Q 4.47857666015625 1.76656025390625 4.49212646484375 1.73836201171875 Q 4.50567626953125 1.71016376953125 4.529296875 1.6931349609375 Q 4.55291748046875 1.67610615234375 4.5849609375 1.66914814453125 Q 4.61700439453125 1.66219013671875 4.65399169921875 1.66219013671875 Q 4.73016357421875 1.66219013671875 4.76806640625 1.69130390625 Q 4.80596923828125 1.72041767578125 4.80596923828125 1.77461689453125 Q 4.80596923828125 1.77974384765625 4.80523681640625 1.78596943359375 Q 4.80450439453125 1.79219501953125 4.80322265625 1.7978712890625 Q 4.80194091796875 1.80354755859375 4.80029296875 1.8073927734375 Q 4.79864501953125 1.81123798828125 4.79718017578125 1.81123798828125 L 4.68951416015625 1.81123798828125 L 4.50787353515625 1.80757587890625 Q 4.50860595703125 1.84163349609375 4.516845703125 1.8652541015625 Q 4.52508544921875 1.88887470703125 4.541015625 1.90370625 Q 4.55694580078125 1.91853779296875 4.58038330078125 1.9253126953125 Q 4.60382080078125 1.93208759765625 4.63494873046875 1.93208759765625 M 5.12255859375 1.67097919921875 Q 5.1265869140625 1.67207783203125 5.12841796875 1.675190625 Q 5.1302490234375 1.67830341796875 5.1302490234375 1.68196552734375 Q 5.1302490234375 1.68672626953125 5.12713623046875 1.69075458984375 Q 5.1240234375 1.69478291015625 5.1177978515625 1.69478291015625 Q 5.115966796875 1.69478291015625 5.1156005859375 1.6945998046875 Q 5.115234375 1.69441669921875 5.1134033203125 1.69405048828125 Q 5.09912109375 1.69002216796875 5.08612060546875 1.68782490234375 Q 5.0731201171875 1.68562763671875 5.0577392578125 1.68562763671875 Q 5.0361328125 1.68562763671875 5.01654052734375 1.6898390625 Q 4.9969482421875 1.69405048828125 4.98101806640625 1.7026564453125 Q 4.965087890625 1.71126240234375 4.953369140625 1.7246291015625 Q 4.941650390625 1.73799580078125 4.935791015625 1.75594013671875 L 4.935791015625 1.92439716796875 Q 4.935791015625 1.93391865234375 4.9332275390625 1.94197529296875 Q 4.9306640625 1.95003193359375 4.9215087890625 1.95003193359375 Q 4.9163818359375 1.95003193359375 4.91326904296875 1.94783466796875 Q 4.91015625 1.94563740234375 4.90869140625 1.94197529296875 Q 4.9072265625 1.93831318359375 4.9068603515625 1.933735546875 Q 4.906494140625 1.92915791015625 4.906494140625 1.92439716796875 L 4.906494140625 1.69002216796875 Q 4.906494140625 1.68159931640625 4.909423828125 1.6755568359375 Q 4.912353515625 1.66951435546875 4.9229736328125 1.66951435546875 Q 4.9310302734375 1.66951435546875 4.93341064453125 1.67537373046875 Q 4.935791015625 1.68123310546875 4.935791015625 1.69002216796875 L 4.935791015625 1.73250263671875 Q 4.941650390625 1.71016376953125 4.95611572265625 1.69624775390625 Q 4.9705810546875 1.68233173828125 4.98834228515625 1.6748244140625 Q 5.006103515625 1.66731708984375 5.0247802734375 1.66475361328125 Q 5.04345703125 1.66219013671875 5.0577392578125 1.66219013671875 Q 5.0716552734375 1.66219013671875 5.08172607421875 1.6631056640625 Q 5.091796875 1.66402119140625 5.09912109375 1.6653029296875 Q 5.1064453125 1.66658466796875 5.1119384765625 1.66804951171875 Q 5.117431640625 1.66951435546875 5.12255859375 1.67097919921875" fill="#d795ff" fill-rule="nonzero"></path></g></g><defs><clipPath id="SvgjsClipPath121684"><path d=" M -7.712931848008703 -1.0701947793705995 h 7.312931848008702 v 4.090421492334949 h -7.312931848008702 Z"></path></clipPath><clipPath id="SvgjsClipPath1216790bbfea72-d33b-4efb-a284-213abf5aa6fe"><path d=" M -7.712931848008703 -1.0701947793705995 L -0.40000000000000036 -1.0701947793705995 L -0.40000000000000036 3.0202267129643494 L -7.712931848008703 3.0202267129643494 Z"></path></clipPath></defs></svg>