<?xml version="1.0" encoding="UTF-8"?>
<!DOCTYPE svg PUBLIC "-//W3C//DTD SVG 1.1//EN" "http://www.w3.org/Graphics/SVG/1.1/DTD/svg11.dtd">
<svg xmlns="http://www.w3.org/2000/svg" version="1.1" width="345px" height="202px" style="shape-rendering:geometricPrecision; text-rendering:geometricPrecision; image-rendering:optimizeQuality; fill-rule:evenodd; clip-rule:evenodd" xmlns:xlink="http://www.w3.org/1999/xlink">
<g><path style="opacity:1" fill="#fefefe" d="M -0.5,-0.5 C 114.5,-0.5 229.5,-0.5 344.5,-0.5C 344.5,66.8333 344.5,134.167 344.5,201.5C 229.5,201.5 114.5,201.5 -0.5,201.5C -0.5,134.167 -0.5,66.8333 -0.5,-0.5 Z"/></g>
<g><path style="opacity:1" fill="#9e81bb" d="M 23.5,173.5 C 22.0131,174.804 20.3464,175.97 18.5,177C 19.1667,177.333 19.8333,177.667 20.5,178C 17.5981,180.036 14.5981,180.869 11.5,180.5C 16.3625,168.151 22.6959,156.651 30.5,146C 36.6581,143.505 41.9914,139.838 46.5,135C 49.8333,134.333 53.1667,134.333 56.5,135C 62.1357,136.934 67.8024,138.767 73.5,140.5C 78.0108,138.079 82.6775,135.912 87.5,134C 90.0402,131.795 92.2068,129.295 94,126.5C 98.7436,116.014 103.744,105.68 109,95.5C 110.543,93.6217 112.376,92.1217 114.5,91C 129.112,89.7832 140.612,83.2832 149,71.5C 154.971,58.2218 161.971,45.5551 170,33.5C 174.023,28.7978 179.023,25.7978 185,24.5C 187.728,24.5572 190.061,25.5572 192,27.5C 195.465,35.5499 199.132,43.5499 203,51.5C 208.311,56.4793 213.311,61.8126 218,67.5C 220.737,76.1428 224.904,83.9761 230.5,91C 232,91.5 233.5,92 235,92.5C 239.331,91.5004 243.664,90.5004 248,89.5C 252.019,89.8426 255.352,91.5093 258,94.5C 262.387,102.997 266.387,111.664 270,120.5C 272.941,125.772 276.274,130.772 280,135.5C 287.633,141.075 294.799,147.242 301.5,154C 306.875,153.962 311.875,155.296 316.5,158C 322.567,164.802 327.901,172.135 332.5,180C 328.51,179.737 324.843,179.07 321.5,178C 322.833,177.333 322.833,176.667 321.5,176C 319.608,175.027 317.608,174.36 315.5,174C 316.833,173.667 318.167,173.333 319.5,173C 314.053,170.96 308.386,169.96 302.5,170C 296.576,166.675 290.243,164.342 283.5,163C 273.684,158.177 264.684,152.177 256.5,145C 246.181,143.972 235.848,142.972 225.5,142C 221.172,140.171 217.172,137.838 213.5,135C 206.833,129.667 200.833,123.667 195.5,117C 186.933,113.609 178.6,114.275 170.5,119C 164.877,122.955 159.543,127.288 154.5,132C 148.76,136.026 142.426,138.693 135.5,140C 126.825,141.334 118.158,142.667 109.5,144C 105.188,147.981 101.188,152.314 97.5,157C 89.8005,161.402 81.4672,163.902 72.5,164.5C 63.2028,162.937 53.8695,162.103 44.5,162C 37.9638,164.913 31.2972,167.579 24.5,170C 23.5,171 22.5,172 21.5,173C 22.0944,173.464 22.7611,173.631 23.5,173.5 Z"/></g>
<g><path style="opacity:1" fill="#fdfdfd" d="M 183.5,92.5 C 187.059,92.4081 190.392,93.2415 193.5,95C 196.667,99.5 199.833,104 203,108.5C 210.054,115.431 217.221,122.265 224.5,129C 231.634,131.766 238.967,132.266 246.5,130.5C 248.923,130.594 251.256,131.094 253.5,132C 261.807,139.638 270.141,147.305 278.5,155C 286.746,158.629 294.746,162.629 302.5,167C 307.251,167.189 311.917,167.855 316.5,169C 311.5,169.112 306.5,168.779 301.5,168C 295.454,164.905 289.121,162.571 282.5,161C 279.833,159.667 277.167,158.333 274.5,157C 268.448,151.947 262.115,147.281 255.5,143C 249.054,141.191 242.554,141.024 236,142.5C 232.048,142.22 228.215,141.387 224.5,140C 213.939,133.439 204.605,125.439 196.5,116C 186.428,112.202 176.761,113.202 167.5,119C 160.784,124.717 153.784,130.05 146.5,135C 134.848,139.054 122.848,141.387 110.5,142C 109.167,142.667 107.833,143.333 106.5,144C 103.353,147.981 100.02,151.814 96.5,155.5C 93.9632,157.267 91.2966,158.767 88.5,160C 83.2734,160.912 78.1067,162.079 73,163.5C 62.9599,161.065 52.7933,160.232 42.5,161C 41.8333,161.667 41.1667,162.333 40.5,163C 35.3528,164.222 30.3528,165.555 25.5,167C 28.7044,163.483 32.7044,161.483 37.5,161C 40.4326,159.729 43.0993,158.062 45.5,156C 54.7631,156.126 63.9298,157.292 73,159.5C 78.4451,157.796 83.9451,156.296 89.5,155C 93.2413,153.262 96.408,150.762 99,147.5C 102.062,141.77 105.896,136.603 110.5,132C 118.771,130.15 127.104,128.484 135.5,127C 141.391,125.388 146.725,122.721 151.5,119C 157.802,111.697 164.468,104.697 171.5,98C 175.475,95.8537 179.475,94.0204 183.5,92.5 Z"/></g>
<g><path style="opacity:1" fill="#fdfdfd" d="M 181.5,71.5 C 185.257,71.0708 188.757,71.7375 192,73.5C 196.432,83.926 203.098,92.5926 212,99.5C 215.802,108.3 221.969,114.8 230.5,119C 235.84,119.434 241.173,119.267 246.5,118.5C 249.295,118.453 251.961,118.953 254.5,120C 261.017,129.362 268.017,138.362 275.5,147C 282.044,152.07 289.044,156.404 296.5,160C 290.98,158.822 285.647,156.822 280.5,154C 271.859,146.028 263.193,138.028 254.5,130C 252.091,129.065 249.591,128.565 247,128.5C 238.816,130.5 230.982,129.666 223.5,126C 218,119.167 211.833,113 205,107.5C 201.71,103.088 198.544,98.5876 195.5,94C 186.286,90.0462 177.62,91.0462 169.5,97C 161.779,104.721 154.113,112.387 146.5,120C 142.952,121.941 139.286,123.607 135.5,125C 126.824,126.668 118.158,128.335 109.5,130C 104.896,134.603 101.062,139.77 98,145.5C 95.4634,148.372 92.6301,150.872 89.5,153C 83.9451,154.296 78.4451,155.796 73,157.5C 64.9254,155.606 56.7587,154.273 48.5,153.5C 44.9634,153.935 41.9634,155.435 39.5,158C 36.2302,159.321 32.8969,159.987 29.5,160C 35.5956,157.45 41.2622,154.117 46.5,150C 55.6616,150.264 64.6616,151.764 73.5,154.5C 79.4884,152.335 85.4884,150.168 91.5,148C 98.2711,141.631 103.438,134.131 107,125.5C 108.458,123.04 110.291,120.873 112.5,119C 124.26,117.979 135.26,114.646 145.5,109C 153.743,101.085 160.91,92.252 167,82.5C 171.274,77.9628 176.107,74.2961 181.5,71.5 Z"/></g>
<g><path style="opacity:1" fill="#fdfdfd" d="M 182.5,49.5 C 185.862,49.0695 188.695,50.0695 191,52.5C 194,58.5 197,64.5 200,70.5C 203.667,75.5 208,79.8333 213,83.5C 216.124,91.5936 220.624,98.7602 226.5,105C 233.372,107.941 240.372,108.108 247.5,105.5C 250.028,105.763 252.361,106.596 254.5,108C 260.29,118.416 266.456,128.583 273,138.5C 278.351,144.419 284.517,149.253 291.5,153C 287.123,152.005 283.123,150.005 279.5,147C 271.093,137.6 263.093,127.933 255.5,118C 248.802,115.137 241.968,114.97 235,117.5C 231.075,116.953 227.575,115.453 224.5,113C 219.113,103.614 212.279,95.4471 204,88.5C 200.452,81.9013 196.286,75.7346 191.5,70C 187.5,68 183.5,68 179.5,70C 175.835,71.497 172.502,73.497 169.5,76C 162.896,83.2689 157.063,91.1022 152,99.5C 147.814,104.674 142.647,108.508 136.5,111C 127.515,113.441 118.515,115.774 109.5,118C 106.543,122.08 103.71,126.247 101,130.5C 103.682,121.974 107.849,114.141 113.5,107C 128.828,105.751 141.662,99.5839 152,88.5C 157.667,79.1667 163.333,69.8333 169,60.5C 172.819,55.8329 177.319,52.1663 182.5,49.5 Z"/></g>
<g><path style="opacity:1" fill="#fdfdfd" d="M 261.5,111.5 C 261.167,111.5 260.833,111.5 260.5,111.5C 258.561,107.064 255.228,104.231 250.5,103C 245.496,103.054 240.496,103.554 235.5,104.5C 232.567,104.534 229.9,103.701 227.5,102C 222.87,96.021 219.036,89.521 216,82.5C 206.034,74.5646 199.034,64.5646 195,52.5C 189.4,45.4303 182.9,44.597 175.5,50C 171.003,54.1318 166.836,58.6318 163,63.5C 157.777,74.7881 150.944,84.9548 142.5,94C 133.166,99.1709 123.166,102.504 112.5,104C 110.667,105.833 108.833,107.667 107,109.5C 108.265,104.14 110.765,99.3062 114.5,95C 121.155,93.0023 127.822,91.0023 134.5,89C 138.873,87.2869 142.707,84.7869 146,81.5C 148.911,78.0105 151.578,74.3438 154,70.5C 159.776,57.1032 166.943,44.6032 175.5,33C 178.274,30.5285 181.44,28.6952 185,27.5C 186.473,27.9031 187.806,28.5697 189,29.5C 192.532,38.8967 196.865,47.8967 202,56.5C 205.667,59.8333 209.333,63.1667 213,66.5C 216.333,73.8333 219.667,81.1667 223,88.5C 225.264,91.4335 228.098,93.6001 231.5,95C 236.909,95.4836 242.242,94.9836 247.5,93.5C 249.634,93.5153 251.634,94.0153 253.5,95C 257.028,100.083 259.694,105.583 261.5,111.5 Z"/></g>
<g><path style="opacity:1" fill="#c5b4d7" d="M 260.5,111.5 C 260.833,111.5 261.167,111.5 261.5,111.5C 263.175,113.179 264.008,115.179 264,117.5C 262.569,115.636 261.403,113.636 260.5,111.5 Z"/></g>
<g><path style="opacity:1" fill="#fbfafc" d="M 45.5,141.5 C 46.6322,139.201 48.4655,137.868 51,137.5C 58.3412,139.503 65.6745,141.503 73,143.5C 79.7026,141.161 86.2026,138.661 92.5,136C 91.1667,137.333 89.8333,138.667 88.5,140C 83.3185,141.714 78.3185,143.881 73.5,146.5C 64.4718,142.57 55.1385,140.903 45.5,141.5 Z"/></g>
<g><path style="opacity:1" fill="#fbfafc" d="M 43.5,148.5 C 45.0146,145.647 47.3479,143.981 50.5,143.5C 58.141,144.952 65.641,146.952 73,149.5C 78.444,147.195 83.944,145.028 89.5,143C 93,140.833 95.8333,138 98,134.5C 96.8055,138.412 94.6389,141.912 91.5,145C 84.2421,148.869 76.5754,150.869 68.5,151C 60.3591,147.791 52.0258,146.957 43.5,148.5 Z"/></g>
<g><path style="opacity:1" fill="#b6a0cb" d="M 174.5,136.5 C 180.749,136.756 180.416,137.423 173.5,138.5C 172.833,138.333 172.167,138.167 171.5,138C 172.737,137.768 173.737,137.268 174.5,136.5 Z"/></g>
<g><path style="opacity:1" fill="#a88ec2" d="M 199.5,139.5 C 198.244,139.539 197.244,139.039 196.5,138C 197.998,137.415 198.998,137.915 199.5,139.5 Z"/></g>
<g><path style="opacity:1" fill="#b098c7" d="M 199.5,139.5 C 201.196,139.685 202.529,140.519 203.5,142C 201.588,142.279 200.254,141.446 199.5,139.5 Z"/></g>
<g><path style="opacity:1" fill="#c1aed3" d="M 45.5,141.5 C 44.4154,143.587 42.7488,144.92 40.5,145.5C 41.5846,143.413 43.2512,142.08 45.5,141.5 Z"/></g>
<g><path style="opacity:1" fill="#ac93c5" d="M 160.5,142.5 C 162.379,142.393 162.712,142.893 161.5,144C 156.698,145.94 156.365,145.44 160.5,142.5 Z"/></g>
<g><path style="opacity:1" fill="#a78dc2" d="M 208.5,146.5 C 206.804,146.315 205.471,145.481 204.5,144C 206.412,143.721 207.746,144.554 208.5,146.5 Z"/></g>
<g><path style="opacity:1" fill="#aa90c3" d="M 208.5,146.5 C 209.756,146.461 210.756,146.961 211.5,148C 210.002,148.585 209.002,148.085 208.5,146.5 Z"/></g>
<g><path style="opacity:1" fill="#f4f1f7" d="M 40.5,145.5 C 38.0032,148.082 35.0032,149.582 31.5,150C 34.2432,147.962 37.2432,146.462 40.5,145.5 Z"/></g>
<g><path style="opacity:1" fill="#f9f7fa" d="M 43.5,148.5 C 40.2281,152.803 35.8947,154.969 30.5,155C 34.8553,152.822 39.1887,150.656 43.5,148.5 Z"/></g>
<g><path style="opacity:1" fill="#b69fcc" d="M 136.5,152.5 C 139.28,151.18 142.28,150.68 145.5,151C 142.607,152.149 139.607,152.649 136.5,152.5 Z"/></g>
<g><path style="opacity:1" fill="#b099c7" d="M 217.5,152.5 C 217.735,151.903 218.235,151.57 219,151.5C 221.774,152.536 224.607,153.369 227.5,154C 224.038,154.46 220.704,153.96 217.5,152.5 Z"/></g>
<g><path style="opacity:1" fill="#a286be" d="M 136.5,152.5 C 130.4,154.258 124.066,154.758 117.5,154C 123.827,153.349 130.16,152.849 136.5,152.5 Z"/></g>
<g><path style="opacity:1" fill="#ae96c6" d="M 104.5,156.5 C 105.239,156.369 105.906,156.536 106.5,157C 105.534,158.678 104.201,159.345 102.5,159C 103.381,158.292 104.047,157.458 104.5,156.5 Z"/></g>
<g><path style="opacity:1" fill="#a68dc1" d="M 97.5,163.5 C 98.2544,161.554 99.5878,160.721 101.5,161C 100.529,162.481 99.1958,163.315 97.5,163.5 Z"/></g>
<g><path style="opacity:1" fill="#f1eef5" d="M 300.5,164.5 C 301.274,163.853 302.274,163.52 303.5,163.5C 306.5,164 309.5,164.5 312.5,165C 308.463,165.607 304.463,165.44 300.5,164.5 Z"/></g>
<g><path style="opacity:1" fill="#ad95c6" d="M 97.5,163.5 C 96.713,165.104 95.3797,165.771 93.5,165.5C 94.5137,164.326 95.847,163.66 97.5,163.5 Z"/></g>
<g><path style="opacity:1" fill="#ad95c5" d="M 276.5,165.5 C 274.692,165.509 273.025,165.009 271.5,164C 273.535,163.401 275.201,163.901 276.5,165.5 Z"/></g>
<g><path style="opacity:1" fill="#b39cc9" d="M 93.5,165.5 C 91.5449,167.326 89.2116,167.826 86.5,167C 88.8127,166.338 91.146,165.838 93.5,165.5 Z"/></g>
<g><path style="opacity:1" fill="#b098c7" d="M 276.5,165.5 C 281.148,166.662 285.814,167.829 290.5,169C 285.377,169.386 280.71,168.219 276.5,165.5 Z"/></g>
<g><path style="opacity:1" fill="#aa91c3" d="M 27.5,171.5 C 31.9381,169.792 36.6048,168.959 41.5,169C 36.959,170.435 32.2924,171.268 27.5,171.5 Z"/></g>
<g><path style="opacity:1" fill="#ad95c6" d="M 27.5,171.5 C 26.4863,172.674 25.153,173.34 23.5,173.5C 24.287,171.896 25.6203,171.229 27.5,171.5 Z"/></g>
</svg>
